<svg id="Capa_1" enable-background="new 0 0 511.999 511.999" height="512" viewBox="0 0 511.999 511.999" width="512" xmlns="http://www.w3.org/2000/svg"><g><g><path clip-rule="evenodd" d="m147.449 193.686c-6.576-2.664-12.16-7.339-18.226-11.023-4.819-2.89-9.694-2.862-14.428.113-21.231 13.432-13.833 10.768-40.308 14.537-5.556.765-7.738 5.157-10.205 10.173-8.249 16.946-8.617 17.286-25.54 25.56-5.046 2.465-9.411 4.647-10.205 10.202-3.77 26.439-1.105 19.071-14.513 40.268-3.005 4.761-3.033 9.635-.142 14.424 3.685 6.093 8.362 11.647 11.027 18.221 2.665 6.603 3.175 13.857 4.79 20.8 1.191 5.242 7.086 11.505 12.501 13.574h99.551c2.665-1.87 4.224-5.044 5.953-8.558 8.277-16.946 8.617-17.286 25.54-25.56 5.046-2.437 9.411-4.647 10.205-10.173 3.77-26.467 1.105-19.071 14.513-40.296 3.005-4.732 3.033-9.606.142-14.424-3.685-6.064-8.362-11.647-11.027-18.221-.085-.198-.17-.397-.227-.595-2.466-6.433-3.005-13.46-4.535-20.176-1.332-5.781-8.305-12.752-14.088-14.084-6.917-1.588-14.202-2.098-20.778-4.762z" fill="#ffa96b" fill-rule="evenodd"/></g><g><path clip-rule="evenodd" d="m344.028 188.132c-6.548-2.777-12.047-7.566-18.085-11.335-5.017-3.145-14.882-3.145-19.899 0-6.038 3.769-11.537 8.558-18.085 11.335-6.52 2.749-13.776 3.4-20.664 5.101-5.471 1.332-8.901 4.789-10.119 10.287-1.276 5.583-2.069 9.521-2.721 12.525 4.167 2.834 8.334 5.753 12.982 7.623 6.605 2.664 13.861 3.174 20.778 4.789 5.783 1.304 12.756 8.275 14.088 14.055 1.587 6.943 2.098 14.197 4.762 20.8 2.665 6.574 7.37 12.128 11.027 18.221 2.92 4.789 2.891 9.663-.113 14.395-13.436 21.225-10.771 13.857-14.513 40.296-.794 5.554-5.159 7.736-10.205 10.202-3.316 1.615-5.981 2.919-8.22 4.109h87.957c.822-1.332 1.417-2.834 1.814-4.562 5.527-24.484 2.183-17.371 18.226-38.737 3.373-4.477 1.814-9.125 0-14.424-6.123-17.824-6.123-18.306 0-36.13 1.814-5.299 3.373-9.947 0-14.424-16.044-21.367-12.699-14.254-18.226-38.737-.142-.623-.312-1.219-.482-1.785-1.531-4.449-4.79-7.311-9.638-8.501-6.888-1.703-14.144-2.354-20.664-5.103z" fill="#ffa96b" fill-rule="evenodd"/></g><g><path clip-rule="evenodd" d="m234.783 212.786c-21.203 13.404-13.833 10.74-40.28 14.509-3.685.51-5.868 2.607-7.653 5.412l.227.595c2.665 6.574 7.342 12.157 11.027 18.221 2.891 4.817 2.863 9.691-.142 14.424-13.408 21.225-10.743 13.829-14.513 40.296-.794 5.526-5.159 7.736-10.205 10.173-16.923 8.275-17.263 8.615-25.54 25.56-1.729 3.514-3.288 6.688-5.953 8.558h143.289c2.239-1.19 4.904-2.494 8.22-4.109 5.046-2.465 9.411-4.647 10.205-10.202 3.742-26.439 1.077-19.071 14.513-40.296 3.005-4.732 3.033-9.606.113-14.395-3.657-6.093-8.362-11.647-11.027-18.221-2.665-6.603-3.175-13.857-4.762-20.8-1.332-5.781-8.305-12.752-14.088-14.055-6.916-1.615-14.173-2.125-20.778-4.789-4.649-1.87-8.816-4.789-12.982-7.623-1.729-1.162-3.458-2.324-5.244-3.401-4.79-2.89-9.693-2.861-14.427.143z" fill="#ffd4b5" fill-rule="evenodd"/></g><g><path clip-rule="evenodd" d="m425.948 186.8c-5.017-3.145-14.882-3.145-19.899 0-6.038 3.769-11.537 8.558-18.085 11.335-4.337 1.814-8.986 2.72-13.634 3.599.17.567.34 1.162.482 1.785 5.527 24.484 2.183 17.371 18.226 38.737 3.373 4.477 1.814 9.125 0 14.424-6.123 17.824-6.123 18.306 0 36.13 1.814 5.299 3.373 9.946 0 14.424-16.044 21.366-12.699 14.254-18.226 38.737-.397 1.729-.992 3.23-1.814 4.562h103.009c3.912-18.079 2.296-13.715 17.036-33.325 3.373-4.477 1.814-9.096 0-14.395-6.123-17.824-6.123-18.334 0-36.159 1.814-5.299 3.373-9.918 0-14.395-16.044-21.366-12.727-14.282-18.226-38.766-1.219-5.469-4.677-8.926-10.12-10.287-6.888-1.7-14.145-2.324-20.664-5.072-6.549-2.776-12.048-7.565-18.085-11.334z" fill="#ffd4b5" fill-rule="evenodd"/></g><g><path clip-rule="evenodd" d="m372.997 350.534h-87.957-143.288-99.551-32.201l23.697 63.986h444.577l23.726-63.986h-25.993z" fill="#faf7f5" fill-rule="evenodd"/></g><g><path clip-rule="evenodd" d="m478.274 414.52h-444.577l16.299 43.98h412.008z" fill="#ff7b79" fill-rule="evenodd"/></g><g><path d="m510.208 344.823c-1.87-2.687-4.936-4.288-8.208-4.288h-13.211c1.12-2.75 2.802-4.943 6.645-9.953 1.554-2.025 3.396-4.429 5.597-7.355 6.579-8.733 3.507-17.71 1.471-23.661-2.735-7.962-4.051-11.918-4.051-14.83s1.315-6.868 4.055-14.842c2.032-5.94 5.104-14.918-1.465-23.638-2.229-2.969-4.09-5.395-5.653-7.435-6.803-8.874-6.803-8.874-8.966-19.026-.498-2.342-1.091-5.121-1.844-8.475-2.047-9.186-8.246-15.513-17.484-17.821-2.574-.635-5.104-1.118-7.55-1.585-4.253-.812-8.271-1.578-11.605-2.984-3.364-1.427-6.713-3.778-10.257-6.268-2.051-1.44-4.171-2.93-6.421-4.334-8.271-5.186-22.25-5.187-30.506-.011-2.267 1.415-4.387 2.904-6.438 4.345-3.545 2.489-6.893 4.841-10.209 6.248-1.548.647-3.226 1.156-4.959 1.594-3.039-3.381-7.113-5.775-12.06-6.979-2.547-.628-5.052-1.111-7.475-1.578-4.278-.824-8.32-1.603-11.681-3.02-3.364-1.427-6.712-3.777-10.256-6.267-2.051-1.44-4.173-2.931-6.422-4.335-8.271-5.187-22.25-5.186-30.506-.011-2.267 1.415-4.389 2.905-6.439 4.346-3.544 2.489-6.892 4.84-10.234 6.258-3.382 1.426-7.424 2.204-11.702 3.028-2.423.467-4.928.95-7.443 1.571-9.214 2.243-15.422 8.544-17.479 17.683-6.066-1.491-12.36-.452-18.012 3.132-2.931 1.853-5.322 3.402-7.336 4.707-8.687 5.628-8.687 5.628-19.765 7.094-2.474.327-5.413.718-8.908 1.214-.4-2.294-.818-4.652-1.371-7.062-2.191-9.509-12.077-19.394-21.597-21.586-2.566-.589-5.089-1.028-7.528-1.454-4.287-.747-8.337-1.453-11.731-2.828-3.427-1.388-6.851-3.712-10.476-6.174-2.016-1.368-4.1-2.783-6.361-4.157-8.1-4.856-16.938-4.775-24.918.238-2.955 1.87-5.363 3.432-7.388 4.745-8.66 5.618-8.66 5.618-19.754 7.085-2.542.337-5.564.736-9.185 1.252-10.846 1.494-15.039 10.023-17.831 15.703-3.678 7.556-5.536 11.278-7.596 13.337-2.047 2.046-5.776 3.916-13.342 7.615-5.64 2.755-14.163 6.919-15.715 17.775-.524 3.672-.925 6.698-1.262 9.244-1.466 11.072-1.466 11.072-7.095 19.756-1.306 2.013-2.855 4.403-4.713 7.341-5.042 7.988-5.13 16.843-.242 24.937 1.368 2.263 2.808 4.382 4.2 6.433 2.438 3.588 4.74 6.978 6.109 10.354 1.37 3.396 2.079 7.42 2.829 11.679.436 2.475.887 5.033 1.482 7.594.107.471.231.92.364 1.36h-10.31c-3.272 0-6.338 1.602-8.208 4.288-1.869 2.686-2.306 6.117-1.169 9.186l39.996 107.966c1.453 3.923 5.194 6.526 9.377 6.526h412.008c4.183 0 7.924-2.604 9.377-6.526l39.996-107.966c1.136-3.068.7-6.5-1.169-9.185zm-107.712-55.26c-2.735-7.962-4.05-11.918-4.05-14.817 0-2.898 1.314-6.854 4.053-14.826 2.036-5.947 5.114-14.936-1.465-23.668-2.227-2.966-4.085-5.39-5.646-7.427-6.792-8.86-6.792-8.86-8.951-18.953-.041-.19-.086-.401-.128-.597 1.842-.534 3.711-1.16 5.562-1.934 5.314-2.255 9.7-5.335 13.941-8.313 1.916-1.346 3.727-2.617 5.549-3.755 1.776-1.113 7.498-1.113 9.293.01 1.806 1.128 3.616 2.399 5.532 3.745 4.241 2.979 8.627 6.059 13.961 8.321 5.302 2.236 10.561 3.239 15.646 4.21 2.289.438 4.451.85 6.479 1.35 1.95.487 2.425 1.147 2.788 2.777.737 3.284 1.314 5.993 1.801 8.274 2.958 13.89 3.549 15.152 12.654 27.029 1.527 1.991 3.343 4.359 5.519 7.257-.022.995-.876 3.489-1.447 5.16-6.848 19.933-6.848 22.724-.004 42.646.575 1.682 1.429 4.177 1.451 5.171-2.152 2.862-3.952 5.209-5.469 7.186-7.931 10.34-9.422 12.656-11.611 22.126h-81.714c.065-.305.134-.624.196-.915 2.159-10.093 2.159-10.093 8.952-18.955 1.563-2.037 3.419-4.46 5.637-7.413 6.588-8.745 3.51-17.733 1.471-23.689zm-135.557-83.88c.391-1.76.925-2.297 2.753-2.741 2.045-.505 4.192-.919 6.466-1.357 5.101-.982 10.375-1.999 15.707-4.246 5.313-2.254 9.699-5.334 13.939-8.312 1.917-1.347 3.729-2.619 5.553-3.757 1.776-1.113 7.497-1.114 9.291.011 1.807 1.127 3.618 2.399 5.535 3.746 4.24 2.978 8.626 6.058 13.961 8.32 5.311 2.238 10.585 3.255 15.686 4.237 2.273.438 4.421.853 6.496 1.364 1.798.438 2.332.975 2.73 2.772.748 3.313 1.332 6.04 1.822 8.334 2.957 13.823 3.548 15.082 12.637 26.938 1.525 1.99 3.339 4.356 5.513 7.251-.017 1.007-.907 3.609-1.448 5.188-6.841 19.92-6.841 22.708-.003 42.618.544 1.588 1.435 4.19 1.451 5.197-2.173 2.895-3.986 5.26-5.512 7.249-9.09 11.857-9.681 13.116-12.638 26.939-.32 1.497-.686 3.2-1.103 5.099h-53.052c.266-.918.495-1.874.642-2.909.521-3.675.918-6.703 1.252-9.25 1.453-11.064 1.453-11.064 7.098-19.764 1.307-2.014 2.857-4.405 4.705-7.323 5.075-7.994 5.149-16.858.245-24.901-1.392-2.319-2.864-4.486-4.288-6.583-2.411-3.549-4.688-6.901-6.039-10.234-1.382-3.424-2.089-7.48-2.838-11.773-.425-2.433-.863-4.948-1.453-7.529-2.199-9.542-12.105-19.418-21.559-21.549-2.614-.61-5.178-1.063-7.657-1.5-4.249-.749-8.263-1.457-11.64-2.819-1.836-.744-3.673-1.761-5.539-2.92.369-1.706.79-3.62 1.287-5.796zm-73.591 101.97c.522-3.672.924-6.699 1.261-9.245 1.466-11.08 1.466-11.08 7.079-19.748 1.31-2.021 2.865-4.424 4.716-7.353 5.051-7.955 5.148-16.81.245-24.977-1.346-2.215-2.763-4.301-4.133-6.317-.787-1.159-1.555-2.295-2.288-3.419 1.747-.238 3.32-.446 4.734-.633 14.819-1.961 16.129-2.435 28.016-10.136 1.962-1.271 4.292-2.781 7.163-4.596 1.508-.958 2.345-.962 3.879-.037 1.782 1.082 3.571 2.297 5.466 3.583 4.328 2.938 8.804 5.977 14.21 8.167 5.336 2.151 10.585 3.077 15.662 3.973 2.315.408 4.503.794 6.657 1.297 2.035.459 6.07 4.496 6.539 6.53.471 2.058.846 4.211 1.244 6.491.895 5.131 1.819 10.436 3.999 15.835 2.154 5.316 5.145 9.719 8.037 13.976 1.327 1.953 2.58 3.798 3.719 5.695.939 1.541.936 2.328-.024 3.841-1.807 2.854-3.318 5.185-4.592 7.146-7.729 11.912-8.202 13.223-10.148 28.046-.327 2.488-.716 5.446-1.222 9.022-.714.7-3.188 1.909-4.686 2.641-2.446 1.191-4.477 2.185-6.278 3.1h-123.027c1.946-3.822 3.294-6.085 4.729-7.521 2.049-2.05 5.772-3.917 13.288-7.592 5.307-2.564 14.189-6.855 15.755-17.769zm-170.872-18.791c1.806-2.854 3.316-5.185 4.587-7.146 7.705-11.884 8.179-13.193 10.141-28.01.329-2.487.721-5.444 1.231-9.027.714-.701 3.188-1.91 4.7-2.648 18.954-9.268 20.926-11.241 30.12-30.132.785-1.597 1.95-3.966 2.643-4.686 3.585-.511 6.543-.901 9.03-1.23 14.841-1.963 16.15-2.437 28.017-10.134 1.972-1.279 4.317-2.801 7.171-4.606 1.539-.968 2.354-.97 3.915-.033 1.781 1.082 3.569 2.296 5.462 3.581 4.33 2.939 8.807 5.979 14.201 8.164 5.368 2.175 10.674 3.1 15.805 3.994 2.283.398 4.44.774 6.483 1.243 2.052.473 6.115 4.534 6.586 6.577.471 2.051.847 4.207 1.245 6.49.896 5.129 1.82 10.433 3.996 15.799 2.185 5.393 5.225 9.867 8.164 14.193 1.286 1.894 2.501 3.683 3.556 5.418.957 1.594.955 2.398-.021 3.937-1.814 2.872-3.331 5.213-4.606 7.183-7.686 11.867-8.158 13.176-10.119 27.996-.327 2.465-.714 5.392-1.233 9.018-.732.716-3.266 1.938-4.697 2.631-18.913 9.247-20.884 11.22-30.126 30.141-.437.889-.991 2.011-1.514 2.961h-92.711c-2.35-1.491-4.736-4.422-5.062-5.84-.485-2.085-.87-4.271-1.278-6.584-.896-5.088-1.823-10.349-3.984-15.707-2.173-5.36-5.189-9.801-8.106-14.095-1.304-1.92-2.535-3.733-3.627-5.538-.946-1.568-.939-2.373.031-3.91zm432.568 159.638h-398.088l-8.883-23.979h72.958c5.522 0 10-4.478 10-10s-4.478-10-10-10h-80.367l-16.295-43.986h463.262l-16.295 43.986h-260.477c-5.522 0-10 4.478-10 10s4.478 10 10 10h253.068z"/><path d="m116.977 246.278h.057c5.522 0 9.972-4.478 9.972-10s-4.506-10-10.028-10-10 4.478-10 10 4.477 10 9.999 10z"/><path d="m117.034 271.278c-5.522 0-10 4.478-10 10s4.478 10 10 10h.057c5.522 0 9.972-4.478 9.972-10s-4.507-10-10.029-10z"/><path d="m249.863 274.586h.057c5.522 0 9.972-4.478 9.972-10s-4.506-10-10.028-10-10 4.478-10 10 4.477 10 9.999 10z"/><path d="m234.698 317.235h.028c5.522 0 9.985-4.478 9.985-10s-4.491-10-10.014-10-10 4.478-10 10 4.479 10 10.001 10z"/><path d="m349.385 262.572h.057c5.522 0 9.972-4.478 9.972-10s-4.506-10-10.028-10-10 4.478-10 10c-.001 5.522 4.477 10 9.999 10z"/><path d="m74.94 317.518h.057c5.522 0 9.972-4.478 9.972-10s-4.506-10-10.028-10-10 4.478-10 10 4.477 10 9.999 10z"/><path d="m437.173 256.762h.057c5.522 0 9.972-4.478 9.972-10s-4.506-10-10.028-10-10 4.478-10 10 4.476 10 9.999 10z"/><path d="m430.234 310.493c0 5.522 4.478 10 10 10h.028c5.522 0 9.986-4.478 9.986-10s-4.492-10-10.015-10-9.999 4.478-9.999 10z"/><path d="m165.959 404.521c-5.522 0-10 4.478-10 10s4.478 10 10 10h.028c5.522 0 9.986-4.478 9.986-10s-4.492-10-10.014-10z"/></g><g><path d="m323.823 137.744c-2.896 0-5.769-1.251-7.745-3.668l-.04-.046c-5.654-6.671-8.664-15.486-8.487-24.847-.125-6.607 1.254-16.179 8.4-24.74l.072-.086c.076-.096.173-.214.289-.353 3.237-3.896 3.823-8.51 3.744-11.695-.004-.165-.004-.331 0-.496.079-3.185-.507-7.799-3.745-11.696-.147-.178-.265-.321-.349-.428-3.418-4.337-2.673-10.625 1.665-14.044 4.318-3.402 10.57-2.679 13.998 1.607l.068.082c7.113 8.562 8.486 18.125 8.361 24.727.125 6.604-1.248 16.169-8.364 24.729l-.077.094c-.047.06-.163.201-.31.376-2.606 3.123-3.87 7.051-3.755 11.676.004.165.004.331 0 .496-.08 3.213.505 7.845 3.745 11.668l.262.313c3.498 4.274 2.867 10.574-1.407 14.071-1.856 1.52-4.098 2.26-6.325 2.26zm-.006-47.122h.01z"/></g><g><path d="m253.808 137.744c-2.896 0-5.769-1.251-7.745-3.668l-.041-.047c-5.636-6.664-8.635-15.479-8.457-24.846-.126-6.611 1.247-16.186 8.369-24.737l.379-.456c2.561-3.025 3.859-7.073 3.757-11.705-.004-.149-.004-.298 0-.446.071-3.229-.521-7.883-3.757-11.707l-.25-.299c-3.497-4.273-2.868-10.574 1.406-14.072 4.264-3.492 10.551-2.871 14.053 1.383l.061.071c5.636 6.663 8.646 15.479 8.486 24.847.159 9.371-2.852 18.188-8.489 24.85l-.049.058c-.065.079-.141.172-.228.276-2.597 3.117-3.854 7.051-3.739 11.689.004.166.004.332 0 .498-.08 3.223.501 7.865 3.729 11.681l.249.299c3.498 4.274 2.867 10.574-1.407 14.071-1.858 1.52-4.1 2.26-6.327 2.26z"/></g><g><path d="m183.823 137.744c-2.894 0-5.765-1.249-7.741-3.663l-.04-.046c-5.657-6.67-8.668-15.486-8.491-24.852-.125-6.61 1.255-16.185 8.403-24.744l.071-.085c.076-.095.172-.212.286-.35 3.238-3.897 3.824-8.512 3.745-11.695-.004-.165-.004-.331 0-.496.115-4.63-1.146-8.565-3.745-11.696-.149-.181-.268-.325-.353-.433-3.415-4.34-2.666-10.627 1.674-14.043 4.32-3.401 10.569-2.673 13.996 1.615l.068.082c7.111 8.563 8.483 18.124 8.358 24.723.125 6.601-1.247 16.163-8.361 24.725l-.077.094c-.053.067-.168.207-.313.381-2.606 3.12-3.87 7.048-3.755 11.675.004.165.004.331 0 .496-.08 3.214.505 7.847 3.745 11.667l.258.309c3.5 4.271 2.874 10.572-1.398 14.072-1.857 1.523-4.101 2.264-6.33 2.264zm-.006-47.122h.01z"/></g></g></svg>