<svg id="Capa_1" enable-background="new 0 0 511.655 511.655" fill="#DC3545" height="16" viewBox="0 0 511.655 511.655" width="16" xmlns="http://www.w3.org/2000/svg"><g><path d="m507.837 324.414c-36.77-67.831-83.004-129.594-137.003-183.593-53.999-53.998-115.762-100.232-183.593-137.003-15.757-8.542-35.46-2.248-43.345 13.848-.094.191-.187.381-.28.572-7.463 15.235-1.49 33.567 13.422 41.655 62.347 33.817 119.12 76.325 168.76 125.965 49.64 49.641 92.148 106.413 125.965 168.761 8.088 14.912 26.421 20.885 41.655 13.422.191-.093.381-.187.572-.28 16.095-7.886 22.389-27.59 13.847-43.347z"/><g><path d="m83.091 303.521c22.846-22.846 22.846-60.02 0-82.866-.23-.23-.477-.439-.711-.665l-35.325 100.393c13.479-1.262 26.316-7.142 36.036-16.862z"/><path d="m140.872 450.501-8.52-19.354c-4.723 4.467-8.433 9.962-10.857 16.201-4.306 11.078-4.04 23.17.749 34.048l2.857 6.489 17.487-6.153c3.237-10.299 2.648-21.315-1.716-31.231z"/><path d="m261.778 205.925c11.516 0 22.519-3.311 31.941-9.463-26.944-25.806-55.842-49.397-86.461-70.561-8.233 21.034-3.878 45.896 13.087 62.861 11.067 11.068 25.781 17.163 41.433 17.163z"/><path d="m425.391 368.921c-29.856-55.046-66.883-105.751-110.159-150.943-15.311 11.634-33.894 17.947-53.454 17.947-23.665 0-45.913-9.216-62.646-25.949-27.22-27.221-32.973-67.887-17.293-100.811-12.776-8.036-25.806-15.689-39.104-22.902-3.897-2.114-7.467-4.591-10.711-7.352l-39.046 110.962c4.03 2.865 7.821 6.064 11.326 9.569 34.543 34.543 34.543 90.749 0 125.292-16.684 16.684-39.424 25.916-62.759 25.916-1.692 0-3.388-.065-5.083-.163l-32.771 93.132c-7.763 22.062-2.708 42.03 9.804 54.542 12.511 12.512 32.479 17.567 54.541 9.804l28.681-10.092-1.932-4.389c-8.018-18.212-8.463-38.457-1.254-57.004s21.209-33.177 39.421-41.194c7.581-3.338 16.435.103 19.773 7.685l15.604 35.444c4.501 10.223 6.591 21.143 6.283 32.049l52.792-18.576v27.746c0 17.627 14.289 31.917 31.917 31.917 17.248 0 31.292-13.684 31.888-30.787v-34.007c0-17.491 14.179-31.671 31.671-31.671h.35c17.491 0 31.671 14.18 31.671 31.671v33.229c0 17.491 14.179 31.671 31.671 31.671 17.491 0 31.671-14.18 31.671-31.671v-95.249l14.509-5.105c-2.788-3.265-5.264-6.844-7.361-10.711zm-122.623-10.255c-13.884 12.869-31.746 19.862-50.572 19.862-.963 0-1.927-.018-2.894-.055l-38.699-1.468c-8.278-.314-14.734-7.279-14.421-15.558.754-19.885 9.207-38.285 23.801-51.812 14.594-13.528 33.599-20.557 53.466-19.807l38.699 1.468c8.278.314 14.734 7.279 14.421 15.558-.754 19.884-9.207 38.285-23.801 51.812z"/><path d="m240.376 331.637c-4.908 4.55-8.653 10.022-11.069 16.056l21.132.802c11.87.456 23.218-3.751 31.936-11.831 4.908-4.55 8.653-10.022 11.069-16.056l-21.132-.802c-11.873-.457-23.218 3.751-31.936 11.831z"/></g></g></svg>