<svg id="Layer_1" data-name="Layer 1" xmlns="http://www.w3.org/2000/svg" viewBox="0 0 63.22 63.22"><defs><style>.cls-1{fill:#f0d9af;}.cls-1,.cls-2,.cls-3{stroke:#0b0b0b;stroke-miterlimit:10;}.cls-2{fill:#d4694f;}.cls-3{fill:#fbcf83;}.cls-4{fill:#f37c7c;}.cls-5{fill:#f06261;}.cls-6{fill:#010101;}.cls-7{fill:#3db54a;}.cls-8{fill:#c1282d;}.cls-9{fill:#9bce7b;}.cls-10{fill:#85c663;}</style></defs><title>pizza-completed</title><circle class="cls-1" cx="31.61" cy="31.61" r="31.11"/><path class="cls-2" d="M45.42,23.15l-2.18.46a22,22,0,0,0-8.37,3.73l-1.8,1.31a21.92,21.92,0,0,0-6.13,6.8l-1.12,1.94A22.18,22.18,0,0,0,23,46.1l-.23,2.22a21.92,21.92,0,0,0,1,9.1l.69,2.13A22,22,0,0,0,29,67.48l1.5,1.66a21.94,21.94,0,0,0,7.41,5.38l2,.91a22.1,22.1,0,0,0,9,1.9h2.24a22.1,22.1,0,0,0,9-1.9l2-.91a21.94,21.94,0,0,0,7.41-5.38L71,67.48a22,22,0,0,0,4.57-7.93l.69-2.13a21.92,21.92,0,0,0,1-9.1L77,46.1a22.18,22.18,0,0,0-2.83-8.71l-1.12-1.94a21.92,21.92,0,0,0-6.13-6.8l-1.8-1.31a22,22,0,0,0-8.37-3.73l-2.18-.46A22.09,22.09,0,0,0,45.42,23.15Z" transform="translate(-18.39 -18.39)"/><path class="cls-3" d="M53.71,25.66H46.29a12.9,12.9,0,0,0-7.6,2.47l-6,4.36A12.94,12.94,0,0,0,28,39l-2.29,7a12.87,12.87,0,0,0,0,8l2.29,7a12.94,12.94,0,0,0,4.69,6.46l6,4.36a12.9,12.9,0,0,0,7.6,2.47h7.42a12.9,12.9,0,0,0,7.6-2.47l6-4.36A12.94,12.94,0,0,0,72,61.05l2.29-7a12.87,12.87,0,0,0,0-8L72,39a12.94,12.94,0,0,0-4.69-6.46l-6-4.36A12.9,12.9,0,0,0,53.71,25.66Z" transform="translate(-18.39 -18.39)"/><circle class="cls-4" cx="50.22" cy="28.52" r="3.74"/><path class="cls-5" d="M69.53,43.28a3.88,3.88,0,0,0-.75-.11A3.74,3.74,0,0,1,67,50.28a3.52,3.52,0,0,0,.71.25,3.74,3.74,0,0,0,1.83-7.25Z" transform="translate(-18.39 -18.39)"/><circle class="cls-4" cx="49.19" cy="39.64" r="3.74"/><path class="cls-5" d="M68.5,54.41a3.88,3.88,0,0,0-.75-.11A3.74,3.74,0,0,1,66,61.41a4.26,4.26,0,0,0,.71.25,3.74,3.74,0,1,0,1.83-7.25Z" transform="translate(-18.39 -18.39)"/><path class="cls-6" d="M68.59,51a.37.37,0,0,0,.38-.37.38.38,0,0,0-.37-.38,3.21,3.21,0,0,1-.81-.1A3.37,3.37,0,1,1,70,50a.37.37,0,0,0-.19.49.38.38,0,0,0,.5.19,4.11,4.11,0,1,0-2.69.24A4,4,0,0,0,68.59,51Z" transform="translate(-18.39 -18.39)"/><path class="cls-6" d="M66.61,46.92l0,.18a.37.37,0,1,0,.72.18l0-.18a.37.37,0,0,0-.27-.45A.38.38,0,0,0,66.61,46.92Z" transform="translate(-18.39 -18.39)"/><path class="cls-6" d="M69,44.71a.38.38,0,0,0-.45-.28l-.18,0a.38.38,0,0,0-.28.45.37.37,0,0,0,.27.28.28.28,0,0,0,.18,0l.18,0A.37.37,0,0,0,69,44.71Z" transform="translate(-18.39 -18.39)"/><path class="cls-6" d="M67.75,49.06l.1.15a.37.37,0,0,0,.22.15.36.36,0,0,0,.3-.06.38.38,0,0,0,.1-.52l-.11-.15a.37.37,0,0,0-.61.43Z" transform="translate(-18.39 -18.39)"/><path class="cls-6" d="M70.82,47.32l.1-.16a.37.37,0,1,0-.63-.4l-.1.16a.36.36,0,0,0,.12.51.24.24,0,0,0,.1,0A.37.37,0,0,0,70.82,47.32Z" transform="translate(-18.39 -18.39)"/><path class="cls-6" d="M69.27,46.83v-.18a.37.37,0,0,0-.35-.4.38.38,0,0,0-.4.35v.18a.37.37,0,0,0,.28.39h.07A.37.37,0,0,0,69.27,46.83Z" transform="translate(-18.39 -18.39)"/><path class="cls-6" d="M68.59,54.05a4.11,4.11,0,1,0,3,5A4.1,4.1,0,0,0,68.59,54.05ZM66.76,61.3a3.37,3.37,0,1,1,4.09-2.44A3.37,3.37,0,0,1,66.76,61.3Z" transform="translate(-18.39 -18.39)"/><path class="cls-6" d="M66,57.77a.39.39,0,0,0-.46.28l0,.18a.37.37,0,0,0,.72.18l0-.18A.38.38,0,0,0,66,57.77Z" transform="translate(-18.39 -18.39)"/><path class="cls-6" d="M68,55.84a.37.37,0,0,0-.45-.28l-.18,0a.38.38,0,0,0-.28.45.37.37,0,0,0,.27.28.54.54,0,0,0,.18,0l.18,0A.38.38,0,0,0,68,55.84Z" transform="translate(-18.39 -18.39)"/><path class="cls-6" d="M67.44,59.91l-.11-.15a.37.37,0,1,0-.61.43l.1.15a.4.4,0,0,0,.22.15.39.39,0,0,0,.31-.06A.38.38,0,0,0,67.44,59.91Z" transform="translate(-18.39 -18.39)"/><path class="cls-6" d="M69.78,57.77a.37.37,0,0,0-.52.12l-.1.16a.36.36,0,0,0,.12.51l.11,0a.36.36,0,0,0,.4-.16l.1-.16A.38.38,0,0,0,69.78,57.77Z" transform="translate(-18.39 -18.39)"/><path class="cls-6" d="M68.25,57.77a.37.37,0,0,0-.74-.05l0,.19a.39.39,0,0,0,.29.39h.06a.37.37,0,0,0,.4-.35Z" transform="translate(-18.39 -18.39)"/><circle class="cls-4" cx="39.91" cy="44.39" r="3.74"/><path class="cls-5" d="M61.38,64.9a4.22,4.22,0,0,0,.36-.66,3.74,3.74,0,0,1-6-4.16,3.87,3.87,0,0,0-.49.57,3.74,3.74,0,1,0,6.16,4.25Z" transform="translate(-18.39 -18.39)"/><circle class="cls-4" cx="29.84" cy="39.53" r="3.74"/><path class="cls-5" d="M51.31,60.05a3.94,3.94,0,0,0,.37-.66,3.75,3.75,0,0,1-6-4.17,4.48,4.48,0,0,0-.48.58,3.74,3.74,0,1,0,6.15,4.25Z" transform="translate(-18.39 -18.39)"/><path class="cls-6" d="M54.45,61.32a.38.38,0,0,0,.22.48.37.37,0,0,0,.48-.22,3.72,3.72,0,0,1,.38-.71A3.36,3.36,0,1,1,54.94,63a.38.38,0,0,0-.4-.35.39.39,0,0,0-.35.4,4.12,4.12,0,1,0,.72-2.6A4.6,4.6,0,0,0,54.45,61.32Z" transform="translate(-18.39 -18.39)"/><path class="cls-6" d="M59,60.9l-.15-.11a.38.38,0,0,0-.52.1.37.37,0,0,0,.09.52l.15.11a.38.38,0,0,0,.52-.1A.37.37,0,0,0,59,60.9Z" transform="translate(-18.39 -18.39)"/><path class="cls-6" d="M60.21,63.94a.37.37,0,0,0,.42-.32l0-.18a.37.37,0,0,0-.68-.26.38.38,0,0,0-.06.16l0,.18A.37.37,0,0,0,60.21,63.94Z" transform="translate(-18.39 -18.39)"/><path class="cls-6" d="M56.59,61.21l-.18,0a.38.38,0,0,0-.22.15.37.37,0,0,0,0,.31.36.36,0,0,0,.45.26l.19,0a.38.38,0,0,0-.19-.73Z" transform="translate(-18.39 -18.39)"/><path class="cls-6" d="M57.14,64.7l.12.15a.36.36,0,0,0,.52.07.37.37,0,0,0,.07-.52l-.11-.15a.38.38,0,0,0-.53-.07.3.3,0,0,0-.08.08A.38.38,0,0,0,57.14,64.7Z" transform="translate(-18.39 -18.39)"/><path class="cls-6" d="M58.14,63.42l.17.08a.38.38,0,0,0,.31-.69l-.17-.07a.37.37,0,0,0-.46.12.21.21,0,0,0,0,.06A.39.39,0,0,0,58.14,63.42Z" transform="translate(-18.39 -18.39)"/><path class="cls-6" d="M51.62,60.26a4.12,4.12,0,1,0-5.72,1.05A4.11,4.11,0,0,0,51.62,60.26ZM45.47,56a3.36,3.36,0,1,1,.85,4.68A3.37,3.37,0,0,1,45.47,56Z" transform="translate(-18.39 -18.39)"/><path class="cls-6" d="M49,56.56a.37.37,0,0,0-.1-.52l-.15-.1a.37.37,0,1,0-.42.61l.15.11A.37.37,0,0,0,49,56.56Z" transform="translate(-18.39 -18.39)"/><path class="cls-6" d="M50.14,59.09a.37.37,0,0,0,.42-.32l0-.19a.39.39,0,0,0-.32-.42.38.38,0,0,0-.36.16.31.31,0,0,0-.06.16l0,.19A.38.38,0,0,0,50.14,59.09Z" transform="translate(-18.39 -18.39)"/><path class="cls-6" d="M46.53,57.13l.18-.05a.37.37,0,0,0,.27-.45.38.38,0,0,0-.46-.27l-.18,0a.41.41,0,0,0-.21.15.42.42,0,0,0-.06.31A.38.38,0,0,0,46.53,57.13Z" transform="translate(-18.39 -18.39)"/><path class="cls-6" d="M47.72,60.07a.39.39,0,0,0,.07-.53l-.12-.15a.38.38,0,0,0-.52-.07l-.08.09a.38.38,0,0,0,0,.44l.11.15A.39.39,0,0,0,47.72,60.07Z" transform="translate(-18.39 -18.39)"/><path class="cls-6" d="M48.25,58.64a.37.37,0,0,0,.49-.19.36.36,0,0,0-.19-.49l-.17-.08a.37.37,0,0,0-.46.13l0,.06a.36.36,0,0,0,.19.49Z" transform="translate(-18.39 -18.39)"/><circle class="cls-4" cx="35.48" cy="22.31" r="3.74"/><path class="cls-5" d="M53.87,37a3.67,3.67,0,0,0-.75.08,3.74,3.74,0,0,1,0,7.33,3.67,3.67,0,0,0,.75.07,3.74,3.74,0,0,0,0-7.48Z" transform="translate(-18.39 -18.39)"/><path class="cls-6" d="M54.85,44.7a.37.37,0,0,0,.28-.45.38.38,0,0,0-.45-.28,3.21,3.21,0,0,1-.81.1A3.36,3.36,0,1,1,56,43.35a.37.37,0,0,0-.07.52.38.38,0,0,0,.53.06,4.11,4.11,0,1,0-2.55.89A4,4,0,0,0,54.85,44.7Z" transform="translate(-18.39 -18.39)"/><path class="cls-6" d="M51.93,41.2v.19a.38.38,0,0,0,.75,0V41.2a.38.38,0,0,0-.75,0Z" transform="translate(-18.39 -18.39)"/><path class="cls-6" d="M53.75,38.47a.38.38,0,0,0-.5-.16l-.17.08a.37.37,0,0,0,.17.71.35.35,0,0,0,.17,0l.16-.08A.38.38,0,0,0,53.75,38.47Z" transform="translate(-18.39 -18.39)"/><path class="cls-6" d="M53.56,43l.14.12a.36.36,0,0,0,.24.09.36.36,0,0,0,.28-.12.38.38,0,0,0,0-.53l-.14-.12a.38.38,0,0,0-.53,0A.37.37,0,0,0,53.56,43Z" transform="translate(-18.39 -18.39)"/><path class="cls-6" d="M56.11,40.56l.06-.18a.37.37,0,0,0-.24-.47.38.38,0,0,0-.47.24l-.06.18a.37.37,0,0,0,.24.47l.12,0A.37.37,0,0,0,56.11,40.56Z" transform="translate(-18.39 -18.39)"/><path class="cls-6" d="M54.49,40.47l0-.18A.36.36,0,0,0,54,40a.37.37,0,0,0-.3.43l0,.19a.37.37,0,0,0,.37.3h.07A.38.38,0,0,0,54.49,40.47Z" transform="translate(-18.39 -18.39)"/><circle class="cls-4" cx="24.79" cy="29.27" r="3.74"/><path class="cls-5" d="M46.63,46.2a4.22,4.22,0,0,0-.36-.66,3.74,3.74,0,0,1-6.75,2.86,4,4,0,0,0,.22.72,3.74,3.74,0,0,0,6.89-2.92Z" transform="translate(-18.39 -18.39)"/><circle class="cls-4" cx="15.29" cy="35.15" r="3.74"/><path class="cls-5" d="M37.13,52.09a3.48,3.48,0,0,0-.36-.66A3.74,3.74,0,0,1,30,54.28a3.3,3.3,0,0,0,.22.72,3.74,3.74,0,0,0,6.89-2.91Z" transform="translate(-18.39 -18.39)"/><path class="cls-6" d="M39.89,50.12a.37.37,0,0,0,.52.08.38.38,0,0,0,.08-.53,3.06,3.06,0,0,1-.41-.7,3.37,3.37,0,1,1,1.48,1.64.37.37,0,1,0-.36.65,4.11,4.11,0,1,0-1.81-2A3.87,3.87,0,0,0,39.89,50.12Z" transform="translate(-18.39 -18.39)"/><path class="cls-6" d="M42,46.07l-.17.07a.37.37,0,1,0,.29.69l.17-.07a.37.37,0,0,0-.29-.69Z" transform="translate(-18.39 -18.39)"/><path class="cls-6" d="M45.19,46.68a.39.39,0,0,0,0-.53L45,46a.37.37,0,0,0-.52,0,.36.36,0,0,0-.06.39.33.33,0,0,0,.1.14l.14.12A.37.37,0,0,0,45.19,46.68Z" transform="translate(-18.39 -18.39)"/><path class="cls-6" d="M40.94,48.26l0,.18a.33.33,0,0,0,0,.26.35.35,0,0,0,.23.21.37.37,0,0,0,.47-.24l.06-.18a.39.39,0,0,0-.24-.47A.39.39,0,0,0,40.94,48.26Z" transform="translate(-18.39 -18.39)"/><path class="cls-6" d="M44.19,49.67l.18,0a.37.37,0,1,0-.06-.74h-.19a.39.39,0,0,0-.34.41l0,.11A.38.38,0,0,0,44.19,49.67Z" transform="translate(-18.39 -18.39)"/><path class="cls-6" d="M43.64,48.14l.15-.11a.35.35,0,0,0,.11-.51.37.37,0,0,0-.52-.11l-.15.1a.37.37,0,0,0-.14.46l0,.06A.38.38,0,0,0,43.64,48.14Z" transform="translate(-18.39 -18.39)"/><path class="cls-6" d="M37.47,51.94a4.11,4.11,0,1,0-2.19,5.39A4.12,4.12,0,0,0,37.47,51.94Zm-6.89,2.91A3.37,3.37,0,1,1,35,56.64,3.37,3.37,0,0,1,30.58,54.85Z" transform="translate(-18.39 -18.39)"/><path class="cls-6" d="M33,52.15a.37.37,0,0,0-.49-.2L32.3,52a.37.37,0,1,0,.29.69l.17-.08A.37.37,0,0,0,33,52.15Z" transform="translate(-18.39 -18.39)"/><path class="cls-6" d="M35.69,52.56a.38.38,0,0,0,0-.53l-.14-.12A.38.38,0,0,0,35,52a.37.37,0,0,0,0,.39.33.33,0,0,0,.1.14l.14.12A.38.38,0,0,0,35.69,52.56Z" transform="translate(-18.39 -18.39)"/><path class="cls-6" d="M32.1,54.56l.06-.18a.38.38,0,0,0-.72-.23l-.05.17a.36.36,0,0,0,0,.27.4.4,0,0,0,.23.21A.39.39,0,0,0,32.1,54.56Z" transform="translate(-18.39 -18.39)"/><path class="cls-6" d="M35.21,55.13a.36.36,0,0,0-.4-.34l-.19,0a.37.37,0,0,0-.34.4.27.27,0,0,0,0,.12.37.37,0,0,0,.38.22h.18A.37.37,0,0,0,35.21,55.13Z" transform="translate(-18.39 -18.39)"/><path class="cls-6" d="M34.29,53.92a.38.38,0,0,0,.11-.52.38.38,0,0,0-.52-.11l-.15.11a.36.36,0,0,0-.14.45l0,.06a.37.37,0,0,0,.52.11Z" transform="translate(-18.39 -18.39)"/><circle class="cls-4" cx="23.71" cy="17.88" r="3.74"/><path class="cls-5" d="M45.55,34.83a3.48,3.48,0,0,0-.36-.66A3.74,3.74,0,0,1,38.43,37a4,4,0,0,0,.22.72,3.74,3.74,0,0,0,6.9-2.89Z" transform="translate(-18.39 -18.39)"/><circle class="cls-4" cx="14.19" cy="23.74" r="3.74"/><path class="cls-5" d="M36,40.69a3.87,3.87,0,0,0-.35-.67,3.74,3.74,0,0,1-6.76,2.84,4,4,0,0,0,.22.72A3.74,3.74,0,1,0,36,40.69Z" transform="translate(-18.39 -18.39)"/><path class="cls-6" d="M38.8,38.73a.38.38,0,0,0,.6-.45,3.25,3.25,0,0,1-.4-.7,3.36,3.36,0,1,1,1.47,1.64.37.37,0,1,0-.36.65,4.07,4.07,0,0,0,3.58.2,4.11,4.11,0,1,0-5.38-2.2A4.33,4.33,0,0,0,38.8,38.73Z" transform="translate(-18.39 -18.39)"/><path class="cls-6" d="M40.89,34.68l-.17.07a.37.37,0,0,0,.29.69l.17-.07a.37.37,0,0,0-.29-.69Z" transform="translate(-18.39 -18.39)"/><path class="cls-6" d="M44.11,35.3a.38.38,0,0,0,0-.53l-.14-.12a.38.38,0,0,0-.53,0,.37.37,0,0,0-.06.39.45.45,0,0,0,.1.14l.14.12A.39.39,0,0,0,44.11,35.3Z" transform="translate(-18.39 -18.39)"/><path class="cls-6" d="M39.86,36.87l-.06.18a.39.39,0,0,0,0,.26.35.35,0,0,0,.23.21.36.36,0,0,0,.47-.24l.06-.18a.37.37,0,0,0-.24-.47A.38.38,0,0,0,39.86,36.87Z" transform="translate(-18.39 -18.39)"/><path class="cls-6" d="M43.1,38.29l.19,0a.38.38,0,0,0,.34-.4.37.37,0,0,0-.4-.34H43a.37.37,0,0,0-.34.4.5.5,0,0,0,0,.12A.4.4,0,0,0,43.1,38.29Z" transform="translate(-18.39 -18.39)"/><path class="cls-6" d="M42.56,36.75l.15-.1A.38.38,0,0,0,42.3,36l-.15.11a.36.36,0,0,0-.14.45s0,0,0,.06A.36.36,0,0,0,42.56,36.75Z" transform="translate(-18.39 -18.39)"/><path class="cls-6" d="M36.38,40.54a4.11,4.11,0,1,0-2.2,5.39A4.12,4.12,0,0,0,36.38,40.54Zm-6.9,2.89a3.37,3.37,0,1,1,4.41,1.81A3.36,3.36,0,0,1,29.48,43.43Z" transform="translate(-18.39 -18.39)"/><path class="cls-6" d="M31.87,40.74a.37.37,0,0,0-.49-.2l-.18.07a.37.37,0,0,0,.29.69l.18-.07A.37.37,0,0,0,31.87,40.74Z" transform="translate(-18.39 -18.39)"/><path class="cls-6" d="M34.6,41.16a.38.38,0,0,0-.05-.53l-.14-.12a.37.37,0,0,0-.53,0,.39.39,0,0,0-.06.39.36.36,0,0,0,.11.14l.14.12A.39.39,0,0,0,34.6,41.16Z" transform="translate(-18.39 -18.39)"/><path class="cls-6" d="M31,43.14l.06-.18a.39.39,0,0,0-.24-.47.37.37,0,0,0-.47.24l-.06.18a.33.33,0,0,0,0,.26.37.37,0,0,0,.23.21A.38.38,0,0,0,31,43.14Z" transform="translate(-18.39 -18.39)"/><path class="cls-6" d="M34.11,43.73a.37.37,0,0,0-.4-.35l-.19,0a.38.38,0,0,0-.34.4.27.27,0,0,0,0,.12.36.36,0,0,0,.37.22h.19A.37.37,0,0,0,34.11,43.73Z" transform="translate(-18.39 -18.39)"/><path class="cls-6" d="M33.2,42.51a.38.38,0,0,0-.41-.63l-.16.11a.37.37,0,0,0-.14.45l0,.06a.37.37,0,0,0,.52.11Z" transform="translate(-18.39 -18.39)"/><circle class="cls-4" cx="28.62" cy="50.64" r="3.74"/><path class="cls-5" d="M50.09,71.16a4.22,4.22,0,0,0,.36-.66,3.74,3.74,0,0,1-6-4.17,3.49,3.49,0,0,0-.49.58,3.74,3.74,0,0,0,6.16,4.25Z" transform="translate(-18.39 -18.39)"/><circle class="cls-4" cx="18.55" cy="45.78" r="3.74"/><path class="cls-5" d="M40,66.3a3.94,3.94,0,0,0,.37-.66,3.74,3.74,0,0,1-6-4.17,3.35,3.35,0,0,0-.49.57A3.74,3.74,0,1,0,40,66.3Z" transform="translate(-18.39 -18.39)"/><path class="cls-6" d="M43.16,67.57a.38.38,0,0,0,.22.48.37.37,0,0,0,.48-.21,3.09,3.09,0,0,1,.38-.72,3.37,3.37,0,1,1-.59,2.12.36.36,0,0,0-.4-.34.38.38,0,0,0-.35.39,4.11,4.11,0,1,0,.72-2.6A4.34,4.34,0,0,0,43.16,67.57Z" transform="translate(-18.39 -18.39)"/><path class="cls-6" d="M47.7,67.15l-.16-.1a.37.37,0,0,0-.52.09.38.38,0,0,0,.1.52l.15.11a.38.38,0,0,0,.43-.62Z" transform="translate(-18.39 -18.39)"/><path class="cls-6" d="M48.91,70.2a.37.37,0,0,0,.42-.32l0-.19a.37.37,0,0,0-.68-.26.44.44,0,0,0-.06.16l0,.19A.38.38,0,0,0,48.91,70.2Z" transform="translate(-18.39 -18.39)"/><path class="cls-6" d="M45.3,67.47l-.18,0a.44.44,0,0,0-.22.15.37.37,0,0,0,0,.31.37.37,0,0,0,.45.27l.18,0a.37.37,0,0,0,.27-.45A.36.36,0,0,0,45.3,67.47Z" transform="translate(-18.39 -18.39)"/><path class="cls-6" d="M45.85,71l.11.14a.38.38,0,0,0,.53.08.39.39,0,0,0,.07-.53l-.11-.15a.39.39,0,0,0-.53-.07l-.08.09A.38.38,0,0,0,45.85,71Z" transform="translate(-18.39 -18.39)"/><path class="cls-6" d="M46.85,69.67l.17.08a.37.37,0,0,0,.49-.19.36.36,0,0,0-.18-.49L47.16,69a.36.36,0,0,0-.46.13.21.21,0,0,0,0,.06A.37.37,0,0,0,46.85,69.67Z" transform="translate(-18.39 -18.39)"/><path class="cls-6" d="M40.33,66.51a4.12,4.12,0,1,0-5.72,1A4.11,4.11,0,0,0,40.33,66.51Zm-6.15-4.25A3.36,3.36,0,1,1,35,66.94,3.37,3.37,0,0,1,34.18,62.26Z" transform="translate(-18.39 -18.39)"/><path class="cls-6" d="M37.73,62.81a.37.37,0,0,0-.09-.52l-.16-.1a.37.37,0,1,0-.42.61l.15.11A.37.37,0,0,0,37.73,62.81Z" transform="translate(-18.39 -18.39)"/><path class="cls-6" d="M38.85,65.34a.38.38,0,0,0,.42-.32l0-.19a.39.39,0,0,0-.32-.42.38.38,0,0,0-.36.16.31.31,0,0,0-.06.16l0,.19A.38.38,0,0,0,38.85,65.34Z" transform="translate(-18.39 -18.39)"/><path class="cls-6" d="M35.24,63.38l.18-.05a.38.38,0,0,0,.27-.46.37.37,0,0,0-.45-.27l-.19,0a.36.36,0,0,0-.21.15.37.37,0,0,0-.05.31A.37.37,0,0,0,35.24,63.38Z" transform="translate(-18.39 -18.39)"/><path class="cls-6" d="M36.42,66.32a.38.38,0,0,0,.08-.53l-.12-.15a.38.38,0,0,0-.52-.07.34.34,0,0,0-.08.09.36.36,0,0,0,0,.43l.11.15A.37.37,0,0,0,36.42,66.32Z" transform="translate(-18.39 -18.39)"/><path class="cls-6" d="M37,64.89a.37.37,0,0,0,.49-.19.36.36,0,0,0-.19-.49l-.17-.08a.37.37,0,0,0-.46.13.16.16,0,0,0,0,.06.37.37,0,0,0,.19.49Z" transform="translate(-18.39 -18.39)"/><circle class="cls-4" cx="34.55" cy="13.02" r="3.74"/><path class="cls-5" d="M50.27,28.8a4.26,4.26,0,0,0-.47.58,3.75,3.75,0,0,1,5.25,5.13,3.79,3.79,0,0,0,.51-5.78A3.74,3.74,0,0,0,50.27,28.8Z" transform="translate(-18.39 -18.39)"/><circle class="cls-4" cx="43.66" cy="19.5" r="3.74"/><path class="cls-5" d="M59.37,35.28a3.8,3.8,0,0,0-.47.59A3.74,3.74,0,0,1,64.15,41a4.26,4.26,0,0,0,.57-.48,3.74,3.74,0,0,0-5.35-5.23Z" transform="translate(-18.39 -18.39)"/><path class="cls-6" d="M56.49,33.5a.37.37,0,0,0-.64-.38,3.45,3.45,0,0,1-.5.64,3.37,3.37,0,1,1,.94-2,.39.39,0,0,0,.34.42.38.38,0,0,0,.41-.34,4.12,4.12,0,0,0-7-3.3,4.11,4.11,0,1,0,6.49,5Z" transform="translate(-18.39 -18.39)"/><path class="cls-6" d="M52,33.14l.13.13a.37.37,0,0,0,.53,0,.38.38,0,0,0,0-.53l-.14-.13a.37.37,0,1,0-.52.53Z" transform="translate(-18.39 -18.39)"/><path class="cls-6" d="M51.27,29.94a.38.38,0,0,0-.47.24l-.06.18a.38.38,0,0,0,.25.47.39.39,0,0,0,.38-.1.39.39,0,0,0,.08-.14l.06-.18A.38.38,0,0,0,51.27,29.94Z" transform="translate(-18.39 -18.39)"/><path class="cls-6" d="M54.37,33.24l.19,0a.3.3,0,0,0,.23-.11.34.34,0,0,0,.11-.29.38.38,0,0,0-.41-.34h-.18a.37.37,0,0,0-.34.41A.36.36,0,0,0,54.37,33.24Z" transform="translate(-18.39 -18.39)"/><path class="cls-6" d="M54.41,29.71l-.08-.17a.38.38,0,0,0-.67.35l.09.16a.36.36,0,0,0,.5.16l.1-.07A.36.36,0,0,0,54.41,29.71Z" transform="translate(-18.39 -18.39)"/><path class="cls-6" d="M53.21,30.81l-.15-.11a.38.38,0,0,0-.52.1.37.37,0,0,0,.1.52l.15.11a.39.39,0,0,0,.48-.05l0-.06A.36.36,0,0,0,53.21,30.81Z" transform="translate(-18.39 -18.39)"/><path class="cls-6" d="M59.1,35A4.12,4.12,0,1,0,64.92,35,4.13,4.13,0,0,0,59.1,35Zm5.36,5.23a3.37,3.37,0,1,1-.06-4.76A3.37,3.37,0,0,1,64.46,40.25Z" transform="translate(-18.39 -18.39)"/><path class="cls-6" d="M61.05,39.1a.37.37,0,0,0,0,.53l.14.13a.37.37,0,0,0,.52-.54l-.14-.13A.37.37,0,0,0,61.05,39.1Z" transform="translate(-18.39 -18.39)"/><path class="cls-6" d="M60.37,36.42a.38.38,0,0,0-.47.25l-.06.18a.38.38,0,0,0,.63.37.38.38,0,0,0,.09-.15l0-.18A.38.38,0,0,0,60.37,36.42Z" transform="translate(-18.39 -18.39)"/><path class="cls-6" d="M63.6,39l-.19,0a.37.37,0,0,0-.34.4.36.36,0,0,0,.4.34h.19a.38.38,0,0,0,.23-.11.36.36,0,0,0,.11-.29A.38.38,0,0,0,63.6,39Z" transform="translate(-18.39 -18.39)"/><path class="cls-6" d="M62.92,35.87a.38.38,0,0,0-.16.5l.09.17a.38.38,0,0,0,.5.16l.1-.07a.38.38,0,0,0,.06-.44L63.43,36A.37.37,0,0,0,62.92,35.87Z" transform="translate(-18.39 -18.39)"/><path class="cls-6" d="M62.16,37.19a.37.37,0,0,0-.42.62l.15.1a.38.38,0,0,0,.48,0,.1.1,0,0,0,0,0,.37.37,0,0,0-.1-.52Z" transform="translate(-18.39 -18.39)"/><ellipse class="cls-7" cx="49.41" cy="50.07" rx="3.1" ry="2.43" transform="translate(-20.57 79.5) rotate(-88.2)"/><ellipse class="cls-8" cx="49.49" cy="48.21" rx="0.52" ry="0.83" transform="translate(-18.64 77.77) rotate(-88.2)"/><ellipse class="cls-7" cx="55.66" cy="50.96" rx="2.43" ry="3.1" transform="translate(-15.41 86.6) rotate(-88.2)"/><ellipse class="cls-8" cx="53.79" cy="50.88" rx="0.83" ry="0.52" transform="translate(-17.14 84.65) rotate(-88.2)"/><path class="cls-6" d="M49.52,46.73a2.43,2.43,0,0,0-1.94.94,4,4,0,0,0-.15,4.68,2.33,2.33,0,0,0,3.82.12,4,4,0,0,0,.14-4.68A2.41,2.41,0,0,0,49.52,46.73Zm-.2,6.19c-1.2,0-2.14-1.35-2.09-2.92s1.07-2.82,2.27-2.78,2.14,1.35,2.09,2.92S50.53,53,49.32,52.92Z" transform="translate(-18.39 -18.39)"/><path class="cls-6" d="M47.8,50.63a.25.25,0,0,0,.22-.27,2.71,2.71,0,0,1,0-.29.23.23,0,0,0-.23-.25.25.25,0,0,0-.26.23c0,.12,0,.24,0,.35a.24.24,0,0,0,.24.23Z" transform="translate(-18.39 -18.39)"/><path class="cls-6" d="M49.46,52.11a1.51,1.51,0,0,1-1.28-1,.24.24,0,0,0-.32-.14.25.25,0,0,0-.13.32,2,2,0,0,0,1.71,1.35.25.25,0,0,0,.25-.24A.23.23,0,0,0,49.46,52.11Z" transform="translate(-18.39 -18.39)"/><path class="cls-6" d="M49.51,47.44c-.6,0-1.08.3-1.09.73s.45.78,1,.8,1.08-.3,1.09-.73S50.11,47.46,49.51,47.44Zm0,1c-.35,0-.57-.18-.57-.29s.24-.27.59-.26.58.18.57.29S49.83,48.49,49.48,48.48Z" transform="translate(-18.39 -18.39)"/><path class="cls-6" d="M58.06,49.12A4,4,0,0,0,53.38,49a2.32,2.32,0,0,0-.12,3.81,4,4,0,0,0,4.68.15,2.33,2.33,0,0,0,.12-3.82Zm-2.47,4c-1.57,0-2.82-1.07-2.78-2.27s1.35-2.14,2.92-2.09,2.82,1.06,2.79,2.27S57.17,53.19,55.59,53.14Z" transform="translate(-18.39 -18.39)"/><path class="cls-6" d="M53.82,49.81c-.42,0-.78.45-.79,1s.3,1.08.73,1.09.78-.45.8-1.05S54.25,49.82,53.82,49.81Zm0,1.65c-.11,0-.27-.24-.26-.59s.19-.58.3-.57.27.24.26.59S53.88,51.46,53.77,51.46Z" transform="translate(-18.39 -18.39)"/><path class="cls-9" d="M39.84,43.46a1.22,1.22,0,0,0-.41-.56h0l-.21.07a2.55,2.55,0,0,0-.69-1.11.06.06,0,0,0-.08,0l-.09.12a3.28,3.28,0,0,0-1.11-.86,0,0,0,0,0-.06,0L37,41.4a2.56,2.56,0,0,0-.95-.68,0,0,0,0,0-.06,0l-.23.27-.16,0a2.27,2.27,0,0,0-1.52,0,2.34,2.34,0,0,0,.26,1.49l.09.16-.23.27a0,0,0,0,0,0,.06,2.53,2.53,0,0,0,.84.82l-.24.21a0,0,0,0,0,0,.07,3.15,3.15,0,0,0,1,.94l-.09.12a0,0,0,0,0,0,.07,2.46,2.46,0,0,0,1.17.48s.05,0,0,.06l0,.17a.08.08,0,0,0,0,0,1.35,1.35,0,0,0,.62.31l3,.32Z" transform="translate(-18.39 -18.39)"/><path class="cls-10" d="M38.12,45.5a1.35,1.35,0,0,1-.62-.31l0,0,0-.17s0,0,0-.06a2.46,2.46,0,0,1-1.17-.48.06.06,0,0,1,0-.08.13.13,0,0,0,0-.19,3.37,3.37,0,0,1-.91-.86.06.06,0,0,1,0-.07.26.26,0,0,0,0-.39,2.57,2.57,0,0,1-.59-.64,0,0,0,0,1,0-.06l.11-.14a.26.26,0,0,0,0-.29,2.42,2.42,0,0,1-.28-.9,1.94,1.94,0,0,0-.58.12,2.34,2.34,0,0,0,.26,1.49l.09.16-.23.27a0,0,0,0,0,0,.06,2.53,2.53,0,0,0,.84.82l-.24.21a0,0,0,0,0,0,.07,3.15,3.15,0,0,0,1,.94l-.09.12a0,0,0,0,0,0,.07,2.46,2.46,0,0,0,1.17.48s.05,0,0,.06l0,.17a.08.08,0,0,0,0,0,1.35,1.35,0,0,0,.62.31l3,.32-.17-.79Z" transform="translate(-18.39 -18.39)"/><path class="cls-10" d="M40.85,46.64l-.51-.58a2.52,2.52,0,0,1-.65-1.51l.36-.07a2.46,2.46,0,0,1-.22-1.3,0,0,0,0,1,.05,0h.31A1.64,1.64,0,0,1,40.74,42a.06.06,0,0,1,.07,0l.21.13.51-.5h0l.37.62.22-.07a.07.07,0,0,1,.09,0,1.67,1.67,0,0,1,.26,1.16l.27.08a.08.08,0,0,1,0,.1,2.45,2.45,0,0,1-.53,1.18l.34.16a2.71,2.71,0,0,1-1,1.3l-.64.43Z" transform="translate(-18.39 -18.39)"/><path class="cls-9" d="M40.85,46.64l-.66-.41a2.63,2.63,0,0,0-1.6-.38v.37a2.37,2.37,0,0,0-1.32,0,.06.06,0,0,0-.05.06l.05.31a1.71,1.71,0,0,0-1,.72.06.06,0,0,0,0,.07l.16.18-.41.59a0,0,0,0,0,0,.05l.66.26,0,.22a.11.11,0,0,0,0,.09,1.71,1.71,0,0,0,1.2,0l.12.25a.09.09,0,0,0,.1,0,2.44,2.44,0,0,0,1.08-.74l.21.31a2.61,2.61,0,0,0,1.11-1.21l.32-.7,0-.12Z" transform="translate(-18.39 -18.39)"/><path class="cls-10" d="M40.68,46.53l-.16.35a2.61,2.61,0,0,1-1.11,1.21A.3.3,0,0,0,39,48a2.88,2.88,0,0,1-.84.48.1.1,0,0,1-.1,0,.36.36,0,0,0-.37-.2,1.72,1.72,0,0,1-.95-.11.11.11,0,0,1-.05-.09.27.27,0,0,0-.18-.3l-.12-.05-.3.42a0,0,0,0,0,0,.05l.66.26,0,.22a.11.11,0,0,0,0,.09,1.71,1.71,0,0,0,1.2,0l.12.25a.09.09,0,0,0,.1,0,2.44,2.44,0,0,0,1.08-.74l.21.31a2.61,2.61,0,0,0,1.11-1.21l.32-.7,0-.12-.09,0Z" transform="translate(-18.39 -18.39)"/><path class="cls-6" d="M34.19,41.4c0-.12,0-.23,0-.34a2.13,2.13,0,0,1,1.32,0l.17,0a.14.14,0,0,0,.17,0l.18-.22a2.44,2.44,0,0,1,.82.62.19.19,0,0,0,.13.05.15.15,0,0,0,.12-.08l.12-.18a2.94,2.94,0,0,1,1,.77.2.2,0,0,0,.12.06.16.16,0,0,0,.13-.06l0,0,.11.13a.16.16,0,0,0,.23,0l0,0a.18.18,0,0,0,0-.21l-.22-.23a.19.19,0,0,0-.16,0,.21.21,0,0,0-.12,0,3.51,3.51,0,0,0-1-.75.2.2,0,0,0-.26.08l-.07.09a2.58,2.58,0,0,0-.86-.57.2.2,0,0,0-.24.06l-.16.19-.06,0a2.43,2.43,0,0,0-1.62,0,.15.15,0,0,0-.11.12,4.19,4.19,0,0,0,0,.5.16.16,0,0,0,.17.15A.16.16,0,0,0,34.19,41.4Z" transform="translate(-18.39 -18.39)"/><path class="cls-6" d="M42.11,42.06l-.1,0-.3-.51a.19.19,0,0,0-.14-.09.17.17,0,0,0-.15.06L41,42l-.1-.06a.23.23,0,0,0-.26,0,1.91,1.91,0,0,0-.58,1h-.17a.21.21,0,0,0-.11,0,1.81,1.81,0,0,0-.24-.24.24.24,0,0,0-.2,0l0,0a1.54,1.54,0,0,0-.08-.19.16.16,0,0,0-.21-.08.17.17,0,0,0-.08.21A1.66,1.66,0,0,1,39,43a.16.16,0,0,0,.07.09.15.15,0,0,0,.13,0l.15,0a1.14,1.14,0,0,1,.28.38,2.6,2.6,0,0,0,.17.93l-.17,0a.15.15,0,0,0-.13.17,2.84,2.84,0,0,0,.29,1l-1.09-.92,0-.83a.16.16,0,1,0-.31,0l0,.54-.75-.62,0-.84a.16.16,0,0,0-.16-.15.15.15,0,0,0-.15.17v.54l-.74-.63,0-.83a.15.15,0,0,0-.16-.15.16.16,0,0,0-.16.16l0,.55L35.61,42a.16.16,0,0,0-.23,0,.17.17,0,0,0,0,.22l.66.55-.54.07a.17.17,0,0,0-.14.18.16.16,0,0,0,.18.14l.83-.11.74.62-.54.08a.16.16,0,1,0,0,.31l.83-.11.74.63-.54.07a.16.16,0,0,0-.14.18.17.17,0,0,0,.18.14l.83-.12,1,.87a2.94,2.94,0,0,0-1-.09.17.17,0,0,0-.15.16V46a2.64,2.64,0,0,0-1,0h0a1.06,1.06,0,0,1-.35-.19l0-.1a.22.22,0,0,0,0-.16.17.17,0,0,0-.14-.08,2.43,2.43,0,0,1-1-.39l0,0a.14.14,0,0,0,0-.13.15.15,0,0,0-.08-.11A3,3,0,0,1,35,44l.17-.14a.24.24,0,0,0,.05-.14.16.16,0,0,0-.08-.12,2.48,2.48,0,0,1-.74-.7l.18-.21a.17.17,0,0,0,0-.18l-.09-.16a1.66,1.66,0,0,1-.15-.33.16.16,0,0,0-.2-.09.16.16,0,0,0-.1.2c.05.13.11.26.17.38l0,.06-.16.19A.2.2,0,0,0,34,43a2.7,2.7,0,0,0,.71.76l-.08.07a.2.2,0,0,0,0,.28,3.34,3.34,0,0,0,.91.89.2.2,0,0,0,0,.13.16.16,0,0,0,.08.14,2.68,2.68,0,0,0,1.13.51v0a.22.22,0,0,0,.06.19,1.42,1.42,0,0,0,.28.2.21.21,0,0,0,0,.08l0,.18-.09,0a.17.17,0,0,0-.09.21.16.16,0,0,0,.21.08l.19-.06a.17.17,0,0,0,.11-.18l0-.21a2.34,2.34,0,0,1,1.15,0,.14.14,0,0,0,.14,0,.17.17,0,0,0,.07-.13V46a2.49,2.49,0,0,1,1.36.37l.37.23-.84.29-.54-.28a.16.16,0,0,0-.21.07.16.16,0,0,0,.07.22l.26.13-.47.16-.61-.32a.16.16,0,0,0-.15.29l.34.17-1,.34a.17.17,0,0,0-.1.2.17.17,0,0,0,.21.1l.67-.23-.07.15a.16.16,0,0,0,.06.21.16.16,0,0,0,.2,0l0,0,.23-.44.61-.21,0,.11a.17.17,0,0,0,.09.21.15.15,0,0,0,.18,0l0,0,.16-.38,1.1-.37-.24.54a2.52,2.52,0,0,1-.92,1.07l-.13-.19a.21.21,0,0,0-.13-.07.18.18,0,0,0-.13.06,2.11,2.11,0,0,1-.94.66l-.09-.19a.17.17,0,0,0-.19-.08,1.52,1.52,0,0,1-1,0l0-.16a.16.16,0,0,0-.1-.17l-.51-.2.31-.46a.15.15,0,0,0,0-.19l-.11-.12a1.15,1.15,0,0,1,.14-.17.16.16,0,0,0,0-.22.16.16,0,0,0-.23,0l-.21.27a.23.23,0,0,0,0,.26l.08.09-.34.48a.18.18,0,0,0,0,.16.15.15,0,0,0,.11.12l.55.22v.1a.22.22,0,0,0,.15.25,1.8,1.8,0,0,0,1.16.1l.07.13a.23.23,0,0,0,.3.12,2.54,2.54,0,0,0,1-.62l.1.14a.16.16,0,0,0,.21,0,2.77,2.77,0,0,0,.77-.64,2.87,2.87,0,0,0,.41-.65L41,47l.32.26a2.12,2.12,0,0,0,.94.46.16.16,0,0,0,.16-.05.15.15,0,0,0,0-.07.15.15,0,0,0-.12-.19,1.87,1.87,0,0,1-.8-.39l-.33-.27.55-.37a3.06,3.06,0,0,0,.57-.51,3.13,3.13,0,0,0,.5-.87.17.17,0,0,0-.09-.2l-.15-.07a2.58,2.58,0,0,0,.44-1.1.24.24,0,0,0-.17-.27l-.14,0a1.88,1.88,0,0,0-.29-1.14.26.26,0,0,0-.28-.1Zm.24,1.33a.16.16,0,0,0,.11.17l.21.07a2.3,2.3,0,0,1-.49,1,.15.15,0,0,0,0,.14.14.14,0,0,0,.09.11l.2.1a2.43,2.43,0,0,1-.89,1.09l-.5.33.19-1.15.34-.23,0,0a.14.14,0,0,0,0-.19.16.16,0,0,0-.22,0l-.1.07.11-.65.39-.3,0,0a.17.17,0,0,0,0-.2.16.16,0,0,0-.22,0l-.13.1.11-.71a.17.17,0,0,0-.13-.18.16.16,0,0,0-.18.13l-.17,1-.23-.3a.16.16,0,0,0-.22,0,.17.17,0,0,0,0,.23l.41.55L41,45l-.17-.23a.16.16,0,0,0-.22,0,.16.16,0,0,0,0,.23l.35.47-.14.88L40.46,46a2.49,2.49,0,0,1-.6-1.28l.22,0a.2.2,0,0,0,.12-.08.19.19,0,0,0,0-.15A2.18,2.18,0,0,1,40,43.28h.21a.18.18,0,0,0,.16-.14,1.48,1.48,0,0,1,.44-.93l.14.09a.17.17,0,0,0,.2,0l.39-.38.29.47a.16.16,0,0,0,.18.07l.16,0a1.52,1.52,0,0,1,.2,1Z" transform="translate(-18.39 -18.39)"/><path class="cls-9" d="M61.66,47.59a1.3,1.3,0,0,0,.69.12s0,0,0,0l.11-.2a2.36,2.36,0,0,0,1.27.34.06.06,0,0,0,.05,0v-.16a3,3,0,0,0,1.38-.13.05.05,0,0,0,0-.06l-.06-.31A2.68,2.68,0,0,0,66.32,47a.05.05,0,0,0,0,0l0-.36.16-.08a2.27,2.27,0,0,0,1.11-1,2.32,2.32,0,0,0-1.22-.91l-.17,0,0-.36a0,0,0,0,0,0,0,2.43,2.43,0,0,0-1.17,0l0-.32a0,0,0,0,0,0,0,3,3,0,0,0-1.4,0v-.15a.06.06,0,0,0-.06,0,2.53,2.53,0,0,0-1.18.44,0,0,0,0,1-.07,0l-.1-.14s0,0,0,0a1.34,1.34,0,0,0-.66.2l-2.38,1.82Z" transform="translate(-18.39 -18.39)"/><path class="cls-10" d="M61.51,44.92a1.4,1.4,0,0,1,.67-.2l0,0,.09.14a0,0,0,0,0,.07,0,2.51,2.51,0,0,1,1.18-.44,0,0,0,0,1,.06,0,.12.12,0,0,0,.15.12,3.29,3.29,0,0,1,1.25,0,.05.05,0,0,1,0,.06.26.26,0,0,0,.28.27,2.34,2.34,0,0,1,.87.07s0,0,0,0v.18a.26.26,0,0,0,.18.23,2.5,2.5,0,0,1,.83.46,2.43,2.43,0,0,0,.34-.48,2.32,2.32,0,0,0-1.22-.91l-.17,0,0-.36a0,0,0,0,0,0,0,2.43,2.43,0,0,0-1.17,0l0-.32a0,0,0,0,0,0,0,3,3,0,0,0-1.4,0v-.15a.06.06,0,0,0-.06,0,2.53,2.53,0,0,0-1.18.44,0,0,0,0,1-.07,0l-.1-.14s0,0,0,0a1.34,1.34,0,0,0-.66.2l-2.38,1.82.67.46Z" transform="translate(-18.39 -18.39)"/><path class="cls-10" d="M58.75,46l.76.06a2.65,2.65,0,0,1,1.52.66l-.23.3a2.34,2.34,0,0,1,1.06.79.06.06,0,0,1,0,.08l-.21.21A1.72,1.72,0,0,1,62,49.24s0,0,0,0l-.24.05,0,.72s0,0,0,0L61,49.89l-.11.2a.08.08,0,0,1-.09,0,1.65,1.65,0,0,1-1-.67l-.25.13a.08.08,0,0,1-.11,0A2.48,2.48,0,0,1,59,48.32l-.35.12a2.64,2.64,0,0,1-.17-1.64l.17-.75Z" transform="translate(-18.39 -18.39)"/><path class="cls-9" d="M58.75,46l.75-.16A2.68,2.68,0,0,0,60.93,45l-.25-.28a2.46,2.46,0,0,0,1-.91.06.06,0,0,0,0-.07l-.24-.19a1.64,1.64,0,0,0,.2-1.2s0,0-.05-.05l-.24,0-.11-.71s0,0,0,0l-.66.27-.13-.18a.09.09,0,0,0-.1,0,1.68,1.68,0,0,0-.9.78l-.27-.1a.08.08,0,0,0-.1,0,2.43,2.43,0,0,0-.28,1.27l-.36-.08a2.59,2.59,0,0,0,0,1.65l.25.73,0,.12Z" transform="translate(-18.39 -18.39)"/><path class="cls-10" d="M58.94,45.93l-.12-.36a2.59,2.59,0,0,1,0-1.65.3.3,0,0,0,.37-.27,2.64,2.64,0,0,1,.28-.92.08.08,0,0,1,.1,0,.33.33,0,0,0,.4-.12,1.73,1.73,0,0,1,.77-.56.1.1,0,0,1,.1,0,.27.27,0,0,0,.33.1l.13,0-.08-.52s0,0,0,0l-.66.27-.13-.18a.09.09,0,0,0-.1,0,1.68,1.68,0,0,0-.9.78l-.27-.1a.08.08,0,0,0-.1,0,2.43,2.43,0,0,0-.28,1.27l-.36-.08a2.59,2.59,0,0,0,0,1.65l.25.73,0,.12.09-.05Z" transform="translate(-18.39 -18.39)"/><path class="cls-6" d="M67.19,45.21a1.79,1.79,0,0,1,.22.25,2.14,2.14,0,0,1-1,.88l-.17.07a.17.17,0,0,0-.09.16l0,.27a2.47,2.47,0,0,1-1,.12A.19.19,0,0,0,65,47a.18.18,0,0,0,0,.14l0,.22a3,3,0,0,1-1.22.1.15.15,0,0,0-.13,0,.15.15,0,0,0,0,.12v0l-.17,0a.15.15,0,0,0-.17.14,0,0,0,0,0,0,0,.17.17,0,0,0,.15.15l.31,0a.24.24,0,0,0,.16-.07A.17.17,0,0,0,64,47.8a3.29,3.29,0,0,0,1.27-.16.21.21,0,0,0,.14-.24l0-.11a2.5,2.5,0,0,0,1-.18.2.2,0,0,0,.14-.2l0-.25.06,0a2.52,2.52,0,0,0,1.19-1.11.15.15,0,0,0,0-.16,2,2,0,0,0-.32-.38.17.17,0,0,0-.23,0A.16.16,0,0,0,67.19,45.21Z" transform="translate(-18.39 -18.39)"/><path class="cls-6" d="M61,50.16l.05-.08.57.15a.18.18,0,0,0,.16,0,.21.21,0,0,0,.07-.15l0-.59.11,0a.2.2,0,0,0,.17-.2,1.85,1.85,0,0,0-.29-1.16L62,48a.24.24,0,0,0,.06-.11,1,1,0,0,0,.34,0,.25.25,0,0,0,.16-.11l0,0,.19.08a.14.14,0,0,0,.2-.08.15.15,0,0,0-.08-.21l-.29-.14a.19.19,0,0,0-.13,0,.14.14,0,0,0-.09.08l-.08.14a1.15,1.15,0,0,1-.46-.08,2.53,2.53,0,0,0-.76-.56l.1-.14a.15.15,0,0,0,0-.21,2.81,2.81,0,0,0-.91-.54L61.64,46l.59.58a.16.16,0,0,0,.22,0,.14.14,0,0,0,0-.22l-.39-.39,1-.05.59.58a.16.16,0,0,0,.22,0,.15.15,0,0,0,0-.22l-.39-.39,1-.05.6.58a.16.16,0,0,0,.22-.22l-.39-.39.86,0a.16.16,0,0,0,.15-.16.16.16,0,0,0-.17-.15l-.86.05.35-.43a.16.16,0,0,0,0-.22.15.15,0,0,0-.22,0l-.52.65-1,.06.35-.43a.16.16,0,0,0,0-.22.15.15,0,0,0-.22,0l-.52.65-1,.06.34-.43a.17.17,0,0,0,0-.22.16.16,0,0,0-.23,0l-.52.65-1.35.08a2.89,2.89,0,0,0,.78-.61.17.17,0,0,0,0-.21l-.12-.13a2.42,2.42,0,0,0,.73-.7h0a1.13,1.13,0,0,1,.38-.1l.06.09a.2.2,0,0,0,.13.09.18.18,0,0,0,.16,0,2.41,2.41,0,0,1,1-.4v0a.16.16,0,0,0,.06.12.2.2,0,0,0,.13,0,3,3,0,0,1,1.23,0v.22a.13.13,0,0,0,0,.13.15.15,0,0,0,.14,0,2.5,2.5,0,0,1,1,0v.28a.16.16,0,0,0,.11.14l.17.06a2,2,0,0,1,.34.13.16.16,0,0,0,.21-.06.16.16,0,0,0-.07-.22,2.54,2.54,0,0,0-.38-.16l-.07,0v-.25a.22.22,0,0,0-.16-.19,3,3,0,0,0-1-.06v-.11a.21.21,0,0,0-.17-.22,3.45,3.45,0,0,0-1.28,0,.19.19,0,0,0-.07-.11.18.18,0,0,0-.16,0,2.69,2.69,0,0,0-1.16.41l0-.05a.24.24,0,0,0-.18-.09,1.4,1.4,0,0,0-.34,0,.15.15,0,0,0-.05-.06l-.14-.11a.36.36,0,0,0,0-.09.15.15,0,0,0-.08-.21.16.16,0,0,0-.21.08.76.76,0,0,1-.09.18.16.16,0,0,0,0,.2l.16.13a2.11,2.11,0,0,1-.85.78.15.15,0,0,0-.08.11.15.15,0,0,0,0,.14l.15.16a2.48,2.48,0,0,1-1.24.67l-.43.09.42-.79.57-.17a.15.15,0,0,0,.11-.2.17.17,0,0,0-.2-.11l-.27.09.23-.44.66-.2a.16.16,0,0,0,.11-.19.17.17,0,0,0-.2-.11l-.37.11.49-.93a.15.15,0,0,0-.06-.22.16.16,0,0,0-.22.07l-.33.63,0-.16a.16.16,0,0,0-.31,0v0l.14.48-.31.57,0-.11a.16.16,0,0,0-.31.06v0l.14.4-.54,1-.2-.56a2.42,2.42,0,0,1-.06-1.41l.22,0a.18.18,0,0,0,.14,0,.19.19,0,0,0,0-.13,2.23,2.23,0,0,1,.23-1.13l.2.08a.16.16,0,0,0,.2-.07,1.51,1.51,0,0,1,.76-.69l.1.13a.16.16,0,0,0,.19.06l.51-.21.08.55a.16.16,0,0,0,.15.13l.16,0a1.48,1.48,0,0,1,0,.21.16.16,0,0,0,.17.15.16.16,0,0,0,.15-.16,2,2,0,0,0,0-.34.21.21,0,0,0-.19-.17h-.12l-.09-.59a.16.16,0,0,0-.09-.13.17.17,0,0,0-.17,0l-.55.22,0-.08a.25.25,0,0,0-.29-.09,1.86,1.86,0,0,0-.91.74l-.14-.06a.24.24,0,0,0-.3.12,2.59,2.59,0,0,0-.3,1.14l-.17,0a.16.16,0,0,0-.19.11,2.75,2.75,0,0,0-.12,1,3.12,3.12,0,0,0,.15.75l.2.59-.41,0a2.11,2.11,0,0,0-1,.32.17.17,0,0,0-.08.14.26.26,0,0,0,0,.08.17.17,0,0,0,.22.05,1.81,1.81,0,0,1,.85-.27l.42,0-.14.64a2.44,2.44,0,0,0-.06.76,2.56,2.56,0,0,0,.23,1,.16.16,0,0,0,.2.08l.16-.05a2.6,2.6,0,0,0,.43,1.1.24.24,0,0,0,.31.08l.13-.07a1.85,1.85,0,0,0,1,.63.25.25,0,0,0,.28-.12Zm-1.09-.8a.17.17,0,0,0-.2,0l-.19.1a2.11,2.11,0,0,1-.36-1.09.16.16,0,0,0-.21-.15l-.21.07a2.39,2.39,0,0,1-.1-1.4l.13-.59.65,1-.09.41v0a.16.16,0,0,0,.12.15.16.16,0,0,0,.19-.12l0-.12.37.54-.09.49v0a.16.16,0,0,0,.14.15.16.16,0,0,0,.18-.13l0-.16.4.59a.16.16,0,0,0,.26-.18L60.35,48l.37.07a.16.16,0,0,0,.06-.32l-.68-.11-.28-.41.28.05a.16.16,0,1,0,.06-.32l-.59-.1-.5-.73.43,0a2.48,2.48,0,0,1,1.31.52l-.13.19a.17.17,0,0,0,0,.14.19.19,0,0,0,.1.1,2.22,2.22,0,0,1,.93.67l-.15.15a.17.17,0,0,0,0,.21,1.46,1.46,0,0,1,.31,1l-.16,0a.18.18,0,0,0-.13.15l0,.55L61,49.74a.16.16,0,0,0-.18.07l-.08.14a1.47,1.47,0,0,1-.84-.59Z" transform="translate(-18.39 -18.39)"/><path class="cls-9" d="M51.47,61.65a1.24,1.24,0,0,0,.09.69l0,0,.21,0a2.46,2.46,0,0,0,.07,1.31s0,0,.06,0l.14-.06A3.3,3.3,0,0,0,52.63,65a.07.07,0,0,0,.07,0l.28-.15a2.55,2.55,0,0,0,.5,1,0,0,0,0,0,.05,0l.34-.13.12.13a2.28,2.28,0,0,0,1.32.74,2.31,2.31,0,0,0,.49-1.43V65l.34-.13s0,0,0,0a2.68,2.68,0,0,0-.33-1.12l.31-.07a0,0,0,0,0,0-.05,3.08,3.08,0,0,0-.44-1.32l.14-.06a.05.05,0,0,0,0-.07,2.53,2.53,0,0,0-.78-1s0,0,0-.07l.1-.13a.06.06,0,0,0,0,0,1.32,1.32,0,0,0-.4-.58l-2.45-1.71Z" transform="translate(-18.39 -18.39)"/><path class="cls-10" d="M54,60.69a1.39,1.39,0,0,1,.39.58.06.06,0,0,1,0,0l-.1.13a.06.06,0,0,0,0,.08,2.38,2.38,0,0,1,.78,1,0,0,0,0,1,0,.06.14.14,0,0,0-.06.19A3.53,3.53,0,0,1,55.32,64s0,0,0,0a.26.26,0,0,0-.18.35,2.25,2.25,0,0,1,.2.85.05.05,0,0,1,0,0l-.17.06a.26.26,0,0,0-.17.24,2.28,2.28,0,0,1-.19.93,2.21,2.21,0,0,0,.57.17,2.31,2.31,0,0,0,.49-1.43V65l.34-.13s0,0,0,0a2.68,2.68,0,0,0-.33-1.12l.31-.07a0,0,0,0,0,0-.05,3.08,3.08,0,0,0-.44-1.32l.14-.06a.05.05,0,0,0,0-.07,2.53,2.53,0,0,0-.78-1s0,0,0-.07l.1-.13a.06.06,0,0,0,0,0,1.32,1.32,0,0,0-.4-.58l-2.45-1.71-.23.77Z" transform="translate(-18.39 -18.39)"/><path class="cls-10" d="M52.13,58.38l.17.75a2.64,2.64,0,0,1-.16,1.64l-.36-.12a2.47,2.47,0,0,1-.43,1.25.07.07,0,0,1-.07,0L51,61.78a1.64,1.64,0,0,1-1,.67.06.06,0,0,1-.07,0l-.11-.21-.7.19a0,0,0,0,1,0,0l0-.72-.22,0a.09.09,0,0,1-.06-.08,1.64,1.64,0,0,1,.34-1.14l-.2-.2a.09.09,0,0,1,0-.11A2.48,2.48,0,0,1,50,59.31l-.22-.3a2.64,2.64,0,0,1,1.51-.65l.77-.07Z" transform="translate(-18.39 -18.39)"/><path class="cls-9" d="M52.13,58.38l.38.67a2.61,2.61,0,0,0,1.21,1.11l.19-.32a2.41,2.41,0,0,0,1.15.64.06.06,0,0,0,.07,0l.11-.28a1.66,1.66,0,0,0,1.2-.17s0,0,0-.06l0-.24.64-.32s0,0,0,0l-.46-.55.13-.18a.07.07,0,0,0,0-.1,1.69,1.69,0,0,0-1-.63v-.28a.08.08,0,0,0-.07-.08,2.33,2.33,0,0,0-1.29.12l0-.38a2.67,2.67,0,0,0-1.56.53l-.62.46-.1.07Z" transform="translate(-18.39 -18.39)"/><path class="cls-10" d="M52.23,58.55l.3-.23a2.66,2.66,0,0,1,1.56-.52.31.31,0,0,0,.37.27,2.57,2.57,0,0,1,1,0,.08.08,0,0,1,.07.09.37.37,0,0,0,.24.35,1.71,1.71,0,0,1,.77.56.09.09,0,0,1,0,.1.27.27,0,0,0,0,.35l.09.1.46-.23s0,0,0,0l-.46-.55.13-.18a.07.07,0,0,0,0-.1,1.69,1.69,0,0,0-1-.63v-.28a.08.08,0,0,0-.07-.08,2.33,2.33,0,0,0-1.29.12l0-.38a2.67,2.67,0,0,0-1.56.53l-.62.46-.1.07.07.07Z" transform="translate(-18.39 -18.39)"/><path class="cls-6" d="M55.42,66.19a1.75,1.75,0,0,1-.18.29,2.23,2.23,0,0,1-1.13-.67L54,65.67a.19.19,0,0,0-.18,0l-.26.1a2.47,2.47,0,0,1-.42-.93.14.14,0,0,0-.09-.11.14.14,0,0,0-.14,0l-.19.1a3,3,0,0,1-.47-1.14.21.21,0,0,0-.08-.11.2.2,0,0,0-.13,0l0,0a1,1,0,0,1,0-.17.15.15,0,0,0-.19-.12h0a.15.15,0,0,0-.1.18,1.57,1.57,0,0,0,.08.31.19.19,0,0,0,.1.13.23.23,0,0,0,.14,0,3,3,0,0,0,.54,1.16.21.21,0,0,0,.27.07l.1-.06a2.59,2.59,0,0,0,.47.92.22.22,0,0,0,.24.07l.23-.09,0,0a2.53,2.53,0,0,0,1.41.79.17.17,0,0,0,.16-.06,2.26,2.26,0,0,0,.26-.42.16.16,0,1,0-.28-.14Z" transform="translate(-18.39 -18.39)"/><path class="cls-6" d="M48.81,61.77l.1,0,0,.6a.17.17,0,0,0,.08.14.21.21,0,0,0,.16,0l.57-.16.06.11a.22.22,0,0,0,.24.1,1.87,1.87,0,0,0,1-.63l.15.08a.25.25,0,0,0,.12,0,1.5,1.5,0,0,0,.09.32.2.2,0,0,0,.16.12h0c0,.07,0,.14,0,.2a.15.15,0,0,0,.15.17.16.16,0,0,0,.17-.14,1.64,1.64,0,0,1,0-.32.13.13,0,0,0,0-.12.14.14,0,0,0-.1-.07l-.16,0a1.12,1.12,0,0,1-.06-.46,2.65,2.65,0,0,0,.3-.9l.17.06a.16.16,0,0,0,.19-.09,2.68,2.68,0,0,0,.24-1L53,61.12l-.38.75a.16.16,0,1,0,.28.14l.25-.49.35.91-.38.75a.16.16,0,0,0,.07.21.15.15,0,0,0,.21-.07l.25-.49.35.91-.38.75a.16.16,0,0,0,.07.21.15.15,0,0,0,.21-.07l.25-.49.31.8a.15.15,0,0,0,.2.09.16.16,0,0,0,.09-.2l-.3-.8.51.2a.16.16,0,0,0,.2-.09.16.16,0,0,0-.09-.21l-.78-.3L54,62.72l.51.2a.16.16,0,0,0,.2-.09.17.17,0,0,0-.09-.21l-.78-.3-.34-.91.51.2a.16.16,0,0,0,.2-.09.17.17,0,0,0-.09-.21l-.78-.3-.48-1.26a2.91,2.91,0,0,0,.82.56.16.16,0,0,0,.2-.07l.08-.15a2.84,2.84,0,0,0,.89.49s0,0,0,0a1.52,1.52,0,0,1,.21.33L55,61a.24.24,0,0,0,0,.16.22.22,0,0,0,.08.14,2.19,2.19,0,0,1,.68.82l0,0a.14.14,0,0,0-.09.09.17.17,0,0,0,0,.14A3,3,0,0,1,56,63.54l-.21.05a.14.14,0,0,0-.11.09.14.14,0,0,0,0,.14,2.56,2.56,0,0,1,.31,1l-.26.1a.17.17,0,0,0-.11.15v.18a2.19,2.19,0,0,1,0,.36.16.16,0,0,0,.32,0,2.73,2.73,0,0,0,0-.41v-.07l.23-.09a.2.2,0,0,0,.14-.2,2.79,2.79,0,0,0-.26-1l.11,0a.21.21,0,0,0,.16-.23A3.53,3.53,0,0,0,56,62.37a.18.18,0,0,0,.09-.1.18.18,0,0,0,0-.16,2.74,2.74,0,0,0-.74-1l0,0a.22.22,0,0,0,0-.19,1.15,1.15,0,0,0-.15-.32.18.18,0,0,0,.05-.07l.06-.16h.1a.15.15,0,0,0,.17-.14.16.16,0,0,0-.14-.17l-.19,0a.16.16,0,0,0-.19.09l-.08.2a2.31,2.31,0,0,1-1-.57.14.14,0,0,0-.13,0,.15.15,0,0,0-.12.08l-.11.19a2.39,2.39,0,0,1-1-1l-.22-.38.88.16.33.5a.16.16,0,0,0,.22,0,.15.15,0,0,0,0-.22l-.16-.24.48.09.39.57a.16.16,0,0,0,.26-.18L54.67,59l1,.19a.16.16,0,0,0,.19-.13.16.16,0,0,0-.13-.18l-.7-.13.13-.09a.15.15,0,0,0,.05-.22.16.16,0,0,0-.19-.06h0l-.42.28L54,58.54l.1-.07a.16.16,0,0,0,0-.22.14.14,0,0,0-.18,0l0,0-.33.25-1.15-.21.48-.36a2.52,2.52,0,0,1,1.32-.48l0,.22a.14.14,0,0,0,.07.12.14.14,0,0,0,.14,0,2.41,2.41,0,0,1,1.15-.12v.22a.15.15,0,0,0,.13.16,1.52,1.52,0,0,1,.88.52l-.1.13a.17.17,0,0,0,0,.2l.35.43-.49.24a.17.17,0,0,0-.09.18l0,.16-.2.08a.15.15,0,0,0-.1.2.16.16,0,0,0,.2.1,2.22,2.22,0,0,0,.32-.14.21.21,0,0,0,.11-.23l0-.12.53-.26a.21.21,0,0,0,.1-.13.18.18,0,0,0,0-.16l-.38-.46.06-.08a.24.24,0,0,0,0-.29,1.87,1.87,0,0,0-1-.65V57.6a.25.25,0,0,0-.21-.25,2.58,2.58,0,0,0-1.18.06v-.17a.17.17,0,0,0-.16-.15,3.05,3.05,0,0,0-1,.19,2.93,2.93,0,0,0-.67.37l-.5.37L52,57.63a2,2,0,0,0-.6-.85.15.15,0,0,0-.16,0l-.06,0a.16.16,0,0,0,0,.23,1.89,1.89,0,0,1,.51.73l.15.4-.65.05a2.73,2.73,0,0,0-.75.17,2.79,2.79,0,0,0-.86.52.17.17,0,0,0,0,.22l.1.14a2.67,2.67,0,0,0-.92.74.23.23,0,0,0,0,.32l.1.11a1.9,1.9,0,0,0-.29,1.13.22.22,0,0,0,.19.22Zm.43-1.27a.15.15,0,0,0,0-.21l-.15-.15a2.22,2.22,0,0,1,.93-.68.13.13,0,0,0,.1-.1.14.14,0,0,0,0-.14L50,59a2.46,2.46,0,0,1,1.31-.52l.6-.05-.72.91-.41,0h0a.16.16,0,0,0-.11.16.16.16,0,0,0,.18.14h.12l-.4.52-.5.07h0a.15.15,0,0,0-.1.17.16.16,0,0,0,.18.13l.16,0-.44.56a.17.17,0,0,0,0,.23.16.16,0,0,0,.22,0l.65-.83.05.38a.17.17,0,0,0,.18.13.16.16,0,0,0,.14-.18l-.1-.68.31-.39,0,.29a.16.16,0,0,0,.18.13.15.15,0,0,0,.13-.18l-.08-.59.55-.7.1.42a2.6,2.6,0,0,1-.1,1.41l-.22-.07a.14.14,0,0,0-.14,0,.19.19,0,0,0-.07.12,2.19,2.19,0,0,1-.35,1.09l-.19-.09a.16.16,0,0,0-.21,0,1.51,1.51,0,0,1-.84.59L50,62.14a.15.15,0,0,0-.18-.08l-.53.15,0-.55a.15.15,0,0,0-.13-.15l-.16,0a1.57,1.57,0,0,1,.31-1Z" transform="translate(-18.39 -18.39)"/></svg>