<svg id="Layer_1" data-name="Layer 1" xmlns="http://www.w3.org/2000/svg" viewBox="0 0 63.22 63.22"><defs><style>.cls-1{fill:#f0d9af;}.cls-1,.cls-2,.cls-3{stroke:#0b0b0b;stroke-miterlimit:10;}.cls-2{fill:#f4edd0;}.cls-3{fill:#fbcf83;}</style></defs><title>creme-cheese</title><circle class="cls-1" cx="31.61" cy="31.61" r="31.11"/><path class="cls-2" d="M45.42,23.15l-2.18.46a22,22,0,0,0-8.37,3.73l-1.8,1.31a21.92,21.92,0,0,0-6.13,6.8l-1.12,1.94A22.18,22.18,0,0,0,23,46.1l-.23,2.22a21.92,21.92,0,0,0,1,9.1l.69,2.13A22,22,0,0,0,29,67.48l1.5,1.66a21.94,21.94,0,0,0,7.41,5.38l2,.91a22.1,22.1,0,0,0,9,1.9h2.24a22.1,22.1,0,0,0,9-1.9l2-.91a21.94,21.94,0,0,0,7.41-5.38L71,67.48a22,22,0,0,0,4.57-7.93l.69-2.13a21.92,21.92,0,0,0,1-9.1L77,46.1a22.18,22.18,0,0,0-2.83-8.71l-1.12-1.94a21.92,21.92,0,0,0-6.13-6.8l-1.8-1.31a22,22,0,0,0-8.37-3.73l-2.18-.46A22.09,22.09,0,0,0,45.42,23.15Z" transform="translate(-18.39 -18.39)"/><path class="cls-3" d="M53.71,25.66H46.29a12.9,12.9,0,0,0-7.6,2.47l-6,4.36A12.94,12.94,0,0,0,28,39l-2.29,7a12.87,12.87,0,0,0,0,8l2.29,7a12.94,12.94,0,0,0,4.69,6.46l6,4.36a12.9,12.9,0,0,0,7.6,2.47h7.42a12.9,12.9,0,0,0,7.6-2.47l6-4.36A12.94,12.94,0,0,0,72,61.05l2.29-7a12.87,12.87,0,0,0,0-8L72,39a12.94,12.94,0,0,0-4.69-6.46l-6-4.36A12.9,12.9,0,0,0,53.71,25.66Z" transform="translate(-18.39 -18.39)"/></svg>