<?xml version="1.0" encoding="utf-8"?>
<!-- Generator: Adobe Illustrator 23.0.0, SVG Export Plug-In . SVG Version: 6.00 Build 0)  -->
<svg version="1.1" id="Capa_1" xmlns="http://www.w3.org/2000/svg" xmlns:xlink="http://www.w3.org/1999/xlink" x="0px" y="0px"
	 viewBox="0 0 512 512" style="enable-background:new 0 0 512 512;" xml:space="preserve">
<style type="text/css">
	.st0{fill:#FFFFFF;}
</style>
<g>
	<path class="st0" d="M508.2,324.6c-36.8-67.9-83.1-129.7-137.1-183.7C317,86.9,255.2,40.6,187.4,3.8c-15.8-8.5-35.5-2.2-43.4,13.9
		c-0.1,0.2-0.2,0.4-0.3,0.6c-7.5,15.2-1.5,33.6,13.4,41.7c62.4,33.8,119.2,76.4,168.9,126c49.7,49.7,92.2,106.5,126,168.9
		c8.1,14.9,26.4,20.9,41.7,13.4c0.2-0.1,0.4-0.2,0.6-0.3C510.4,360.1,516.7,340.4,508.2,324.6L508.2,324.6z"/>
	<g>
		<path class="st0" d="M83.1,303.7c22.9-22.9,22.9-60.1,0-82.9c-0.2-0.2-0.5-0.4-0.7-0.7L47.1,320.6
			C60.6,319.3,73.4,313.5,83.1,303.7z"/>
		<path class="st0" d="M141,450.8l-8.5-19.4c-4.7,4.5-8.4,10-10.9,16.2c-4.3,11.1-4,23.2,0.7,34.1l2.9,6.5l17.5-6.2
			C145.9,471.8,145.3,460.7,141,450.8L141,450.8z"/>
		<path class="st0" d="M262,206.1c11.5,0,22.5-3.3,32-9.5c-27-25.8-55.9-49.4-86.5-70.6c-8.2,21-3.9,45.9,13.1,62.9
			C231.6,200,246.3,206.1,262,206.1z"/>
		<path class="st0" d="M425.7,369.2c-29.9-55.1-66.9-105.8-110.2-151c-15.3,11.6-33.9,18-53.5,18c-23.7,0-45.9-9.2-62.7-26
			c-27.2-27.2-33-67.9-17.3-100.9c-12.8-8-25.8-15.7-39.1-22.9c-3.9-2.1-7.5-4.6-10.7-7.4L93,190c4,2.9,7.8,6.1,11.3,9.6
			c34.6,34.6,34.6,90.8,0,125.4c-16.7,16.7-39.5,25.9-62.8,25.9c-1.7,0-3.4-0.1-5.1-0.2L3.7,443.9C-4.1,466,1,486,13.5,498.5
			C26,511,46,516.1,68.1,508.3l28.7-10.1l-1.9-4.4c-8-18.2-8.5-38.5-1.3-57c7.2-18.6,21.2-33.2,39.4-41.2c7.6-3.3,16.4,0.1,19.8,7.7
			l15.6,35.5c4.5,10.2,6.6,21.2,6.3,32.1l52.8-18.6V480c0,17.6,14.3,31.9,31.9,31.9c17.3,0,31.3-13.7,31.9-30.8v-34
			c0-17.5,14.2-31.7,31.7-31.7h0.4c17.5,0,31.7,14.2,31.7,31.7v33.3c0,17.5,14.2,31.7,31.7,31.7c17.5,0,31.7-14.2,31.7-31.7V385
			l14.5-5.1C430.3,376.6,427.8,373,425.7,369.2L425.7,369.2z M303,358.9c-13.9,12.9-31.8,19.9-50.6,19.9c-1,0-1.9,0-2.9-0.1
			l-38.7-1.5c-8.3-0.3-14.7-7.3-14.4-15.6c0.8-19.9,9.2-38.3,23.8-51.8c14.6-13.5,33.6-20.6,53.5-19.8l38.7,1.5
			c8.3,0.3,14.7,7.3,14.4,15.6C326,327,317.6,345.4,303,358.9z"/>
		<path class="st0" d="M240.5,331.9c-4.9,4.6-8.7,10-11.1,16.1l21.1,0.8c11.9,0.5,23.2-3.8,32-11.8c4.9-4.6,8.7-10,11.1-16.1
			l-21.1-0.8C260.6,319.6,249.3,323.8,240.5,331.9z"/>
	</g>
</g>
</svg>
