<svg id="Layer_1" height="512" viewBox="0 0 512 512" width="512" xmlns="http://www.w3.org/2000/svg" data-name="Layer 1"><path d="m153.24 446.89 22.61-44.42-46.36-24.93-24.96 46.04a9.691 9.691 0 0 1 -8.49 5.31 26.059 26.059 0 0 0 -23.77 16.13 26.328 26.328 0 0 0 10.42 32.33 25.934 25.934 0 0 0 26.15.64 26.065 26.065 0 1 0 45.73-20.03 10.056 10.056 0 0 1 -1.33-11.07z" fill="#f7e2c4"/><path d="m438.25 170.29s-12.32 61.44-103.08 117.49c-69.35 42.82-107.3 78.48-126.99 100.96a40.379 40.379 0 0 1 -49.98 8.7l-16.07-8.91a40.541 40.541 0 0 1 -20.45-41c3.13-22.74 5.89-61.19 2.74-119.84-6.12-113.96 39.45-189.86 40.79-192.06-16.93 34.56 30.39 92.69 105.73 129.87 75.39 37.2 150.3 39.35 167.31 4.79z" fill="#ed8c4a"/><path d="m188.2 397.44-16.07-8.91a40.541 40.541 0 0 1 -20.45-41c3.13-22.74 5.89-61.19 2.74-119.84a382.972 382.972 0 0 1 18.987-142.151c-11.456-18.506-14.966-36.092-8.2-49.909-1.34 2.2-46.91 78.1-40.79 192.06 3.15 58.65.39 97.1-2.74 119.84a40.541 40.541 0 0 0 20.45 41l16.07 8.91a40.351 40.351 0 0 0 34.605 2.181 40.706 40.706 0 0 1 -4.602-2.181z" fill="#ba713f"/><path d="m332.54 40.36c75.39 37.2 122.72 95.37 105.71 129.93s-91.92 32.41-167.31-4.79c-75.34-37.18-122.66-95.31-105.73-129.87.01-.02.02-.03.03-.05 17.01-34.56 91.91-32.42 167.3 4.78z" fill="#f3c4ad"/><path d="m320.35 62.07c60.89 30.05 101.39 72.4 90.47 94.6s-69.15 15.84-130.04-14.2-101.4-72.4-90.47-94.6 69.15-15.84 130.04 14.2z" fill="#dd494c"/><path d="m309.44 87.7c23.29 11.5 38.78 27.7 34.6 36.19s-26.44 6.06-49.73-5.44-38.78-27.69-34.61-36.18 26.45-6.06 49.74 5.43z" fill="#f7e2c4"/><g fill="#264160"><path d="m335.2 34.983c-37.221-18.365-75.586-28.99-108.029-29.918-33.888-.969-57.7 8.809-67.142 27.535-1.245 2.055-12.554 21.159-23.23 53.8a391.954 391.954 0 0 0 -18.368 141.62c3.161 58.9.28 97.06-2.693 118.7a46.438 46.438 0 0 0 6.693 31.25l-23.18 42.757c-.023.041-.045.083-.066.125a3.682 3.682 0 0 1 -3.218 2.046 32.15 32.15 0 1 0 8.693 63.2 31.982 31.982 0 0 0 16.207 17.787 31.522 31.522 0 0 0 13.693 3.114 32.142 32.142 0 0 0 24.6-52.9 4.067 4.067 0 0 1 -.566-4.482l20.969-41.2a46.481 46.481 0 0 0 33.137-15.717c19.338-22.087 56.83-57.333 125.622-99.81 87.678-54.148 103.884-113.09 105.647-120.684 17.799-38.141-29.718-98.215-108.769-137.223zm-187.3 409.171a16.033 16.033 0 0 0 2.078 17.668 20.318 20.318 0 0 1 1.968 23.3 20.013 20.013 0 0 1 -37.15-7.847 6 6 0 0 0 -8.848-4.541 19.794 19.794 0 0 1 -20.118-.5 20.181 20.181 0 0 1 10.277-37.342 15.652 15.652 0 0 0 13.722-8.507l20.931-38.608a47.026 47.026 0 0 0 8.457 5.994l16.074 8.919a45.756 45.756 0 0 0 11.446 4.453zm184.113-161.479c-70.062 43.261-108.466 79.41-128.346 102.117a34.576 34.576 0 0 1 -42.553 7.405l-16.074-8.919a34.317 34.317 0 0 1 -17.413-34.93c3.044-22.155 6-61.127 2.786-120.975-3.938-73.361 14.127-131.076 27.25-162.48 9.137 34.987 50.875 76.507 110.627 105.992 37.219 18.364 75.583 28.99 108.027 29.918q2.3.066 4.541.066c16.821 0 30.972-2.776 41.878-8.092-11.859 22.255-37.412 56.98-90.723 89.898zm100.852-115.034c-7.026 14.273-27.507 21.994-56.2 21.167-30.755-.88-67.356-11.067-103.06-28.685-71.085-35.072-118.242-90.894-102.982-121.895 6.686-13.583 25.562-21.228 52.101-21.228q2.022 0 4.1.059c30.755.88 67.356 11.067 103.06 28.685 71.083 35.073 118.241 90.895 102.981 121.897z"/><path d="m323 56.692c-30.062-14.834-60.519-24.521-85.759-27.278-27.256-2.976-45.837 2.636-52.319 15.805s.391 31.332 19.348 51.154c17.559 18.361 43.784 36.643 73.847 51.477s60.519 24.521 85.759 27.278a124.818 124.818 0 0 0 13.5.779c19.888 0 33.469-5.722 38.815-16.584 6.48-13.165-.391-31.332-19.347-51.155-17.552-18.361-43.778-36.643-73.844-51.476zm82.428 97.331c-3.97 8.065-19.017 11.491-40.249 9.176-23.882-2.609-52.916-11.882-81.753-26.111-61.806-30.5-95.844-70.1-87.737-86.57 3.152-6.405 13.291-9.886 27.967-9.886a113.421 113.421 0 0 1 12.281.711c23.883 2.609 52.916 11.882 81.753 26.111 61.81 30.496 95.849 70.1 87.742 86.569z"/><path d="m312.1 82.323c-11.877-5.859-23.965-9.693-34.039-10.793-15.491-1.7-21.46 3.466-23.737 8.092s-2.726 12.5 8.047 23.763c7.007 7.327 17.407 14.59 29.282 20.45s23.966 9.693 34.039 10.794a52.586 52.586 0 0 0 5.693.329c11.322 0 16.07-4.41 18.044-8.42 2.275-4.623 2.726-12.5-8.047-23.763-7.008-7.328-17.408-14.591-29.282-20.452zm26.563 38.914c-.254.515-3.126 2.395-11.668 1.462-8.715-.952-19.38-4.371-30.032-9.627-24.143-11.912-33.137-25.583-31.873-28.152.2-.415 2.112-1.718 7.321-1.718a40.086 40.086 0 0 1 4.347.256c8.715.952 19.381 4.37 30.032 9.626 24.141 11.916 33.136 25.585 31.871 28.153z"/><path d="m159.768 191.238a6 6 0 0 0 -11.972-.828 397.988 397.988 0 0 0 -.365 48.606c1.209 22.523 1.626 43.789 1.239 63.206a6 6 0 0 0 5.88 6.118h.121a6 6 0 0 0 6-5.881c.392-19.709-.03-41.271-1.255-64.087a385.954 385.954 0 0 1 .352-47.134z"/><path d="m158.075 153.946a6 6 0 0 0 -6.828 5.037c-.2 1.31-.387 2.266-.586 3.279-.272 1.374-.552 2.794-.815 4.917a6 6 0 0 0 5.215 6.692 6.087 6.087 0 0 0 .746.047 6 6 0 0 0 5.947-5.263c.211-1.7.428-2.8.679-4.068.207-1.048.441-2.235.679-3.813a6 6 0 0 0 -5.037-6.828z"/></g></svg>