<svg id="Layer_1" data-name="Layer 1" xmlns="http://www.w3.org/2000/svg" viewBox="0 0 63.22 63.22"><defs><style>.cls-1{fill:#f0d9af;}.cls-1,.cls-2{stroke:#0b0b0b;stroke-miterlimit:10;}.cls-2{fill:#d4694f;}</style></defs><title>tomato</title><circle class="cls-1" cx="31.61" cy="31.61" r="31.11"/><path class="cls-2" d="M45.42,23.15l-2.18.46a22,22,0,0,0-8.37,3.73l-1.8,1.31a21.92,21.92,0,0,0-6.13,6.8l-1.12,1.94A22.18,22.18,0,0,0,23,46.1l-.23,2.22a21.92,21.92,0,0,0,1,9.1l.69,2.13A22,22,0,0,0,29,67.48l1.5,1.66a21.94,21.94,0,0,0,7.41,5.38l2,.91a22.1,22.1,0,0,0,9,1.9h2.24a22.1,22.1,0,0,0,9-1.9l2-.91a21.94,21.94,0,0,0,7.41-5.38L71,67.48a22,22,0,0,0,4.57-7.93l.69-2.13a21.92,21.92,0,0,0,1-9.1L77,46.1a22.18,22.18,0,0,0-2.83-8.71l-1.12-1.94a21.92,21.92,0,0,0-6.13-6.8l-1.8-1.31a22,22,0,0,0-8.37-3.73l-2.18-.46A22.09,22.09,0,0,0,45.42,23.15Z" transform="translate(-18.39 -18.39)"/></svg>